<?xml version="1.0" encoding="UTF-8" standalone="yes"?><svg xmlns="http://www.w3.org/2000/svg" xmlns:xlink="http://www.w3.org/1999/xlink" height="1497pt" style="width:1857px;height:1497px;" version="1.1" viewBox="0 0 1857 1497" width="1857pt"><defs><filter height="300%" id="f1" width="300%" x="-1" y="-1"><feGaussianBlur result="blurOut" stdDeviation="2.0"/><feColorMatrix in="blurOut" result="blurOut2" type="matrix" values="0 0 0 0 0 0 0 0 0 0 0 0 0 0 0 0 0 0 .4 0"/><feOffset dx="4.0" dy="4.0" in="blurOut2" result="blurOut3"/><feBlend in="SourceGraphic" in2="blurOut3" mode="normal"/></filter></defs><g><polygon fill="#FFFFFF" filter="url(#f1)" points="22,24,73,24,80,46.4883,1850,46.4883,1850,1490,22,1490,22,24" style="stroke: #000000; stroke-width: 2.0;"/><line style="stroke: #000000; stroke-width: 2.0;" x1="22" x2="80" y1="46.4883" y2="46.4883"/><text fill="#000000" font-family="SansSerif" font-size="14" font-weight="bold" lengthAdjust="spacingAndGlyphs" textLength="45" x="25" y="41">model</text><polygon fill="#FFFFFF" filter="url(#f1)" points="46,920,91,920,98,942.4883,549,942.4883,549,1443,46,1443,46,920" style="stroke: #000000; stroke-width: 2.0;"/><line style="stroke: #000000; stroke-width: 2.0;" x1="46" x2="98" y1="942.4883" y2="942.4883"/><text fill="#000000" font-family="SansSerif" font-size="14" font-weight="bold" lengthAdjust="spacingAndGlyphs" textLength="39" x="49" y="937">types</text><polygon fill="#FFFFFF" filter="url(#f1)" points="1210,692,1262,692,1269,714.4883,1826,714.4883,1826,1466,1210,1466,1210,692" style="stroke: #000000; stroke-width: 2.0;"/><line style="stroke: #000000; stroke-width: 2.0;" x1="1210" x2="1269" y1="714.4883" y2="714.4883"/><text fill="#000000" font-family="SansSerif" font-size="14" font-weight="bold" lengthAdjust="spacingAndGlyphs" textLength="46" x="1213" y="709">values</text><polygon fill="#FFFFFF" filter="url(#f1)" points="573,68,623,68,630,90.4883,1186,90.4883,1186,1278,573,1278,573,68" style="stroke: #000000; stroke-width: 2.0;"/><line style="stroke: #000000; stroke-width: 2.0;" x1="573" x2="630" y1="90.4883" y2="90.4883"/><text fill="#000000" font-family="SansSerif" font-size="14" font-weight="bold" lengthAdjust="spacingAndGlyphs" textLength="44" x="576" y="85">charts</text><polygon fill="#FFFFFF" filter="url(#f1)" points="605,717,648,717,655,739.4883,1154,739.4883,1154,1246,605,1246,605,717" style="stroke: #000000; stroke-width: 2.0;"/><line style="stroke: #000000; stroke-width: 2.0;" x1="605" x2="655" y1="739.4883" y2="739.4883"/><text fill="#000000" font-family="SansSerif" font-size="14" font-weight="bold" lengthAdjust="spacingAndGlyphs" textLength="37" x="608" y="734">Node</text><rect fill="#FEFECE" filter="url(#f1)" height="60.9551" style="stroke: #A80036; stroke-width: 1.5;" width="211" x="828.75" y="1365.5"/><ellipse cx="902.5" cy="1381.5" fill="#ADD1B2" rx="11" ry="11" style="stroke: #A80036; stroke-width: 1.0;"/><path d="M905.4731,1387.1431 Q904.8921,1387.4419 904.2529,1387.5913 Q903.6138,1387.7407 902.9082,1387.7407 Q900.4014,1387.7407 899.0815,1386.0889 Q897.7617,1384.437 897.7617,1381.3159 Q897.7617,1378.1865 899.0815,1376.5347 Q900.4014,1374.8828 902.9082,1374.8828 Q903.6138,1374.8828 904.2612,1375.0322 Q904.9087,1375.1816 905.4731,1375.4805 L905.4731,1378.2031 Q904.8423,1377.6221 904.2488,1377.3523 Q903.6553,1377.0825 903.0244,1377.0825 Q901.6797,1377.0825 900.9949,1378.1492 Q900.3101,1379.2158 900.3101,1381.3159 Q900.3101,1383.4077 900.9949,1384.4744 Q901.6797,1385.541 903.0244,1385.541 Q903.6553,1385.541 904.2488,1385.2712 Q904.8423,1385.0015 905.4731,1384.4204 Z "/><text fill="#000000" font-family="SansSerif" font-size="12" lengthAdjust="spacingAndGlyphs" textLength="55" x="923" y="1386.4336">DataTags</text><line style="stroke: #A80036; stroke-width: 1.5;" x1="829.75" x2="1038.75" y1="1397.5" y2="1397.5"/><line style="stroke: #A80036; stroke-width: 1.5;" x1="829.75" x2="1038.75" y1="1405.5" y2="1405.5"/><text fill="#000000" font-family="SansSerif" font-size="11" lengthAdjust="spacingAndGlyphs" textLength="199" x="834.75" y="1420.5">composeWith( t:DataTags ): DataTags</text><rect fill="#FEFECE" filter="url(#f1)" height="73.9102" style="stroke: #A80036; stroke-width: 1.5;" width="90" x="375" y="977"/><ellipse cx="393.15" cy="993" fill="#ADD1B2" rx="11" ry="11" style="stroke: #A80036; stroke-width: 1.0;"/><path d="M396.1231,998.6431 Q395.5421,998.9419 394.9029,999.0913 Q394.2638,999.2407 393.5582,999.2407 Q391.0514,999.2407 389.7315,997.5889 Q388.4117,995.937 388.4117,992.8159 Q388.4117,989.6865 389.7315,988.0347 Q391.0514,986.3828 393.5582,986.3828 Q394.2638,986.3828 394.9112,986.5322 Q395.5587,986.6816 396.1231,986.9805 L396.1231,989.7031 Q395.4923,989.1221 394.8988,988.8523 Q394.3053,988.5825 393.6744,988.5825 Q392.3297,988.5825 391.6449,989.6492 Q390.9601,990.7158 390.9601,992.8159 Q390.9601,994.9077 391.6449,995.9744 Q392.3297,997.041 393.6744,997.041 Q394.3053,997.041 394.8988,996.7712 Q395.4923,996.5015 396.1231,995.9204 Z "/><text fill="#000000" font-family="SansSerif" font-size="12" lengthAdjust="spacingAndGlyphs" textLength="51" x="407.85" y="997.9336">TagType</text><line style="stroke: #A80036; stroke-width: 1.5;" x1="376" x2="464" y1="1009" y2="1009"/><ellipse cx="386" cy="1020.9775" fill="none" rx="3" ry="3" style="stroke: #038048; stroke-width: 1.0;"/><text fill="#000000" font-family="SansSerif" font-size="11" lengthAdjust="spacingAndGlyphs" textLength="64" x="395" y="1024">name:String</text><ellipse cx="386" cy="1033.9326" fill="none" rx="3" ry="3" style="stroke: #038048; stroke-width: 1.0;"/><text fill="#000000" font-family="SansSerif" font-size="11" lengthAdjust="spacingAndGlyphs" textLength="56" x="395" y="1036.9551">info:String</text><line style="stroke: #A80036; stroke-width: 1.5;" x1="376" x2="464" y1="1042.9102" y2="1042.9102"/><rect fill="#FEFECE" filter="url(#f1)" height="48" style="stroke: #A80036; stroke-width: 1.5;" width="92" x="62" y="1161"/><ellipse cx="77" cy="1177" fill="#ADD1B2" rx="11" ry="11" style="stroke: #A80036; stroke-width: 1.0;"/><path d="M79.9731,1182.6431 Q79.3921,1182.9419 78.7529,1183.0913 Q78.1138,1183.2407 77.4082,1183.2407 Q74.9014,1183.2407 73.5815,1181.5889 Q72.2617,1179.937 72.2617,1176.8159 Q72.2617,1173.6865 73.5815,1172.0347 Q74.9014,1170.3828 77.4082,1170.3828 Q78.1138,1170.3828 78.7612,1170.5322 Q79.4087,1170.6816 79.9731,1170.9805 L79.9731,1173.7031 Q79.3423,1173.1221 78.7488,1172.8523 Q78.1553,1172.5825 77.5244,1172.5825 Q76.1797,1172.5825 75.4949,1173.6492 Q74.8101,1174.7158 74.8101,1176.8159 Q74.8101,1178.9077 75.4949,1179.9744 Q76.1797,1181.041 77.5244,1181.041 Q78.1553,1181.041 78.7488,1180.7712 Q79.3423,1180.5015 79.9731,1179.9204 Z "/><text fill="#000000" font-family="SansSerif" font-size="12" lengthAdjust="spacingAndGlyphs" textLength="60" x="91" y="1181.9336">ToDoType</text><line style="stroke: #A80036; stroke-width: 1.5;" x1="63" x2="153" y1="1193" y2="1193"/><line style="stroke: #A80036; stroke-width: 1.5;" x1="63" x2="153" y1="1201" y2="1201"/><rect fill="#FEFECE" filter="url(#f1)" height="60.9551" style="stroke: #A80036; stroke-width: 1.5;" width="123" x="163.75" y="1365.5"/><ellipse cx="189.55" cy="1381.5" fill="#ADD1B2" rx="11" ry="11" style="stroke: #A80036; stroke-width: 1.0;"/><path d="M192.5231,1387.1431 Q191.9421,1387.4419 191.3029,1387.5913 Q190.6638,1387.7407 189.9582,1387.7407 Q187.4514,1387.7407 186.1315,1386.0889 Q184.8117,1384.437 184.8117,1381.3159 Q184.8117,1378.1865 186.1315,1376.5347 Q187.4514,1374.8828 189.9582,1374.8828 Q190.6638,1374.8828 191.3112,1375.0322 Q191.9587,1375.1816 192.5231,1375.4805 L192.5231,1378.2031 Q191.8923,1377.6221 191.2988,1377.3523 Q190.7053,1377.0825 190.0744,1377.0825 Q188.7297,1377.0825 188.0449,1378.1492 Q187.3601,1379.2158 187.3601,1381.3159 Q187.3601,1383.4077 188.0449,1384.4744 Q188.7297,1385.541 190.0744,1385.541 Q190.7053,1385.541 191.2988,1385.2712 Q191.8923,1385.0015 192.5231,1384.4204 Z "/><text fill="#000000" font-family="SansSerif" font-size="12" lengthAdjust="spacingAndGlyphs" textLength="67" x="205.95" y="1386.4336">SimpleType</text><line style="stroke: #A80036; stroke-width: 1.5;" x1="164.75" x2="285.75" y1="1397.5" y2="1397.5"/><ellipse cx="174.75" cy="1409.4775" fill="none" rx="3" ry="3" style="stroke: #038048; stroke-width: 1.0;"/><text fill="#000000" font-family="SansSerif" font-size="11" lengthAdjust="spacingAndGlyphs" textLength="97" x="183.75" y="1412.5">values: TagValue[]</text><line style="stroke: #A80036; stroke-width: 1.5;" x1="164.75" x2="285.75" y1="1418.4551" y2="1418.4551"/><rect fill="#FEFECE" filter="url(#f1)" height="60.9551" style="stroke: #A80036; stroke-width: 1.5;" width="127" x="226.75" y="1154.5"/><ellipse cx="244.9" cy="1170.5" fill="#ADD1B2" rx="11" ry="11" style="stroke: #A80036; stroke-width: 1.0;"/><path d="M247.8731,1176.1431 Q247.2921,1176.4419 246.6529,1176.5913 Q246.0138,1176.7407 245.3082,1176.7407 Q242.8014,1176.7407 241.4815,1175.0889 Q240.1617,1173.437 240.1617,1170.3159 Q240.1617,1167.1865 241.4815,1165.5347 Q242.8014,1163.8828 245.3082,1163.8828 Q246.0138,1163.8828 246.6612,1164.0322 Q247.3087,1164.1816 247.8731,1164.4805 L247.8731,1167.2031 Q247.2423,1166.6221 246.6488,1166.3523 Q246.0553,1166.0825 245.4244,1166.0825 Q244.0797,1166.0825 243.3949,1167.1492 Q242.7101,1168.2158 242.7101,1170.3159 Q242.7101,1172.4077 243.3949,1173.4744 Q244.0797,1174.541 245.4244,1174.541 Q246.0553,1174.541 246.6488,1174.2712 Q247.2423,1174.0015 247.8731,1173.4204 Z "/><text fill="#000000" font-family="SansSerif" font-size="12" lengthAdjust="spacingAndGlyphs" textLength="88" x="259.6" y="1175.4336">AggregateType</text><line style="stroke: #A80036; stroke-width: 1.5;" x1="227.75" x2="352.75" y1="1186.5" y2="1186.5"/><ellipse cx="237.75" cy="1198.4775" fill="none" rx="3" ry="3" style="stroke: #038048; stroke-width: 1.0;"/><text fill="#000000" font-family="SansSerif" font-size="11" lengthAdjust="spacingAndGlyphs" textLength="101" x="246.75" y="1201.5">itemType: TagType</text><line style="stroke: #A80036; stroke-width: 1.5;" x1="227.75" x2="352.75" y1="1207.4551" y2="1207.4551"/><rect fill="#FEFECE" filter="url(#f1)" height="60.9551" style="stroke: #A80036; stroke-width: 1.5;" width="144" x="389" y="1154.5"/><ellipse cx="413" cy="1170.5" fill="#ADD1B2" rx="11" ry="11" style="stroke: #A80036; stroke-width: 1.0;"/><path d="M415.9731,1176.1431 Q415.3921,1176.4419 414.7529,1176.5913 Q414.1138,1176.7407 413.4082,1176.7407 Q410.9014,1176.7407 409.5815,1175.0889 Q408.2617,1173.437 408.2617,1170.3159 Q408.2617,1167.1865 409.5815,1165.5347 Q410.9014,1163.8828 413.4082,1163.8828 Q414.1138,1163.8828 414.7612,1164.0322 Q415.4087,1164.1816 415.9731,1164.4805 L415.9731,1167.2031 Q415.3423,1166.6221 414.7488,1166.3523 Q414.1553,1166.0825 413.5244,1166.0825 Q412.1797,1166.0825 411.4949,1167.1492 Q410.8101,1168.2158 410.8101,1170.3159 Q410.8101,1172.4077 411.4949,1173.4744 Q412.1797,1174.541 413.5244,1174.541 Q414.1553,1174.541 414.7488,1174.2712 Q415.3423,1174.0015 415.9731,1173.4204 Z "/><text fill="#000000" font-family="SansSerif" font-size="12" lengthAdjust="spacingAndGlyphs" textLength="92" x="429" y="1175.4336">CompoundType</text><line style="stroke: #A80036; stroke-width: 1.5;" x1="390" x2="532" y1="1186.5" y2="1186.5"/><ellipse cx="400" cy="1198.4775" fill="none" rx="3" ry="3" style="stroke: #038048; stroke-width: 1.0;"/><text fill="#000000" font-family="SansSerif" font-size="11" lengthAdjust="spacingAndGlyphs" textLength="118" x="409" y="1201.5">fields: List&lt;TagType&gt;</text><line style="stroke: #A80036; stroke-width: 1.5;" x1="390" x2="532" y1="1207.4551" y2="1207.4551"/><rect fill="#FEFECE" filter="url(#f1)" height="86.8652" style="stroke: #A80036; stroke-width: 1.5;" width="101" x="1457" y="750"/><ellipse cx="1478.75" cy="766" fill="#ADD1B2" rx="11" ry="11" style="stroke: #A80036; stroke-width: 1.0;"/><path d="M1481.7231,771.6431 Q1481.1421,771.9419 1480.5029,772.0913 Q1479.8638,772.2407 1479.1582,772.2407 Q1476.6514,772.2407 1475.3315,770.5889 Q1474.0117,768.937 1474.0117,765.8159 Q1474.0117,762.6865 1475.3315,761.0347 Q1476.6514,759.3828 1479.1582,759.3828 Q1479.8638,759.3828 1480.5112,759.5322 Q1481.1587,759.6816 1481.7231,759.9805 L1481.7231,762.7031 Q1481.0923,762.1221 1480.4988,761.8523 Q1479.9053,761.5825 1479.2744,761.5825 Q1477.9297,761.5825 1477.2449,762.6492 Q1476.5601,763.7158 1476.5601,765.8159 Q1476.5601,767.9077 1477.2449,768.9744 Q1477.9297,770.041 1479.2744,770.041 Q1479.9053,770.041 1480.4988,769.7712 Q1481.0923,769.5015 1481.7231,768.9204 Z "/><text fill="#000000" font-family="SansSerif" font-size="12" lengthAdjust="spacingAndGlyphs" textLength="54" x="1494.25" y="770.9336">TagValue</text><line style="stroke: #A80036; stroke-width: 1.5;" x1="1458" x2="1557" y1="782" y2="782"/><ellipse cx="1468" cy="793.9775" fill="none" rx="3" ry="3" style="stroke: #038048; stroke-width: 1.0;"/><text fill="#000000" font-family="SansSerif" font-size="11" lengthAdjust="spacingAndGlyphs" textLength="67" x="1477" y="797">name: String</text><ellipse cx="1468" cy="806.9326" fill="none" rx="3" ry="3" style="stroke: #038048; stroke-width: 1.0;"/><text fill="#000000" font-family="SansSerif" font-size="11" lengthAdjust="spacingAndGlyphs" textLength="75" x="1477" y="809.9551">type: TagType</text><ellipse cx="1468" cy="819.8877" fill="none" rx="3" ry="3" style="stroke: #038048; stroke-width: 1.0;"/><text fill="#000000" font-family="SansSerif" font-size="11" lengthAdjust="spacingAndGlyphs" textLength="59" x="1477" y="822.9102">info: String</text><line style="stroke: #A80036; stroke-width: 1.5;" x1="1458" x2="1557" y1="828.8652" y2="828.8652"/><rect fill="#FEFECE" filter="url(#f1)" height="67.2207" style="stroke: #A80036; stroke-width: 1.5;" width="139" x="1613" y="1363"/><ellipse cx="1628" cy="1382.1328" fill="#ADD1B2" rx="11" ry="11" style="stroke: #A80036; stroke-width: 1.0;"/><path d="M1630.9731,1387.7759 Q1630.3921,1388.0747 1629.7529,1388.2241 Q1629.1138,1388.3735 1628.4082,1388.3735 Q1625.9014,1388.3735 1624.5815,1386.7217 Q1623.2617,1385.0698 1623.2617,1381.9487 Q1623.2617,1378.8193 1624.5815,1377.1675 Q1625.9014,1375.5156 1628.4082,1375.5156 Q1629.1138,1375.5156 1629.7612,1375.665 Q1630.4087,1375.8145 1630.9731,1376.1133 L1630.9731,1378.8359 Q1630.3423,1378.2549 1629.7488,1377.9851 Q1629.1553,1377.7153 1628.5244,1377.7153 Q1627.1797,1377.7153 1626.4949,1378.782 Q1625.8101,1379.8486 1625.8101,1381.9487 Q1625.8101,1384.0405 1626.4949,1385.1072 Q1627.1797,1386.1738 1628.5244,1386.1738 Q1629.1553,1386.1738 1629.7488,1385.9041 Q1630.3423,1385.6343 1630.9731,1385.0532 Z "/><text fill="#000000" font-family="SansSerif" font-size="12" font-style="italic" lengthAdjust="spacingAndGlyphs" textLength="111" x="1640" y="1380">&lt;&lt;Comparable&gt;&gt;</text><text fill="#000000" font-family="SansSerif" font-size="12" lengthAdjust="spacingAndGlyphs" textLength="70" x="1660.5" y="1394.1328">SimpleValue</text><line style="stroke: #A80036; stroke-width: 1.5;" x1="1614" x2="1751" y1="1401.2656" y2="1401.2656"/><ellipse cx="1624" cy="1413.2432" fill="none" rx="3" ry="3" style="stroke: #038048; stroke-width: 1.0;"/><text fill="#000000" font-family="SansSerif" font-size="11" lengthAdjust="spacingAndGlyphs" textLength="58" x="1633" y="1416.2656">ordinal: int</text><line style="stroke: #A80036; stroke-width: 1.5;" x1="1614" x2="1751" y1="1422.2207" y2="1422.2207"/><rect fill="#FEFECE" filter="url(#f1)" height="48" style="stroke: #A80036; stroke-width: 1.5;" width="95" x="1518.75" y="989"/><ellipse cx="1533.75" cy="1005" fill="#ADD1B2" rx="11" ry="11" style="stroke: #A80036; stroke-width: 1.0;"/><path d="M1536.7231,1010.6431 Q1536.1421,1010.9419 1535.5029,1011.0913 Q1534.8638,1011.2407 1534.1582,1011.2407 Q1531.6514,1011.2407 1530.3315,1009.5889 Q1529.0117,1007.937 1529.0117,1004.8159 Q1529.0117,1001.6865 1530.3315,1000.0347 Q1531.6514,998.3828 1534.1582,998.3828 Q1534.8638,998.3828 1535.5112,998.5322 Q1536.1587,998.6816 1536.7231,998.9805 L1536.7231,1001.7031 Q1536.0923,1001.1221 1535.4988,1000.8523 Q1534.9053,1000.5825 1534.2744,1000.5825 Q1532.9297,1000.5825 1532.2449,1001.6492 Q1531.5601,1002.7158 1531.5601,1004.8159 Q1531.5601,1006.9077 1532.2449,1007.9744 Q1532.9297,1009.041 1534.2744,1009.041 Q1534.9053,1009.041 1535.4988,1008.7712 Q1536.0923,1008.5015 1536.7231,1007.9204 Z "/><text fill="#000000" font-family="SansSerif" font-size="12" lengthAdjust="spacingAndGlyphs" textLength="63" x="1547.75" y="1009.9336">ToDoValue</text><line style="stroke: #A80036; stroke-width: 1.5;" x1="1519.75" x2="1612.75" y1="1021" y2="1021"/><line style="stroke: #A80036; stroke-width: 1.5;" x1="1519.75" x2="1612.75" y1="1029" y2="1029"/><rect fill="#FEFECE" filter="url(#f1)" height="60.9551" style="stroke: #A80036; stroke-width: 1.5;" width="123" x="1686.75" y="982.5"/><ellipse cx="1701.75" cy="998.5" fill="#ADD1B2" rx="11" ry="11" style="stroke: #A80036; stroke-width: 1.0;"/><path d="M1704.7231,1004.1431 Q1704.1421,1004.4419 1703.5029,1004.5913 Q1702.8638,1004.7407 1702.1582,1004.7407 Q1699.6514,1004.7407 1698.3315,1003.0889 Q1697.0117,1001.437 1697.0117,998.3159 Q1697.0117,995.1865 1698.3315,993.5347 Q1699.6514,991.8828 1702.1582,991.8828 Q1702.8638,991.8828 1703.5112,992.0322 Q1704.1587,992.1816 1704.7231,992.4805 L1704.7231,995.2031 Q1704.0923,994.6221 1703.4988,994.3523 Q1702.9053,994.0825 1702.2744,994.0825 Q1700.9297,994.0825 1700.2449,995.1492 Q1699.5601,996.2158 1699.5601,998.3159 Q1699.5601,1000.4077 1700.2449,1001.4744 Q1700.9297,1002.541 1702.2744,1002.541 Q1702.9053,1002.541 1703.4988,1002.2712 Q1704.0923,1002.0015 1704.7231,1001.4204 Z "/><text fill="#000000" font-family="SansSerif" font-size="12" lengthAdjust="spacingAndGlyphs" textLength="91" x="1715.75" y="1003.4336">AggregateValue</text><line style="stroke: #A80036; stroke-width: 1.5;" x1="1687.75" x2="1808.75" y1="1014.5" y2="1014.5"/><text fill="#000000" font-family="SansSerif" font-size="11" lengthAdjust="spacingAndGlyphs" textLength="97" x="1692.75" y="1029.5">values: TagValue[]</text><line style="stroke: #A80036; stroke-width: 1.5;" x1="1687.75" x2="1808.75" y1="1035.4551" y2="1035.4551"/><rect fill="#FEFECE" filter="url(#f1)" height="60.9551" style="stroke: #A80036; stroke-width: 1.5;" width="257" x="1226.75" y="982.5"/><ellipse cx="1303.5" cy="998.5" fill="#ADD1B2" rx="11" ry="11" style="stroke: #A80036; stroke-width: 1.0;"/><path d="M1306.4731,1004.1431 Q1305.8921,1004.4419 1305.2529,1004.5913 Q1304.6138,1004.7407 1303.9082,1004.7407 Q1301.4014,1004.7407 1300.0815,1003.0889 Q1298.7617,1001.437 1298.7617,998.3159 Q1298.7617,995.1865 1300.0815,993.5347 Q1301.4014,991.8828 1303.9082,991.8828 Q1304.6138,991.8828 1305.2612,992.0322 Q1305.9087,992.1816 1306.4731,992.4805 L1306.4731,995.2031 Q1305.8423,994.6221 1305.2488,994.3523 Q1304.6553,994.0825 1304.0244,994.0825 Q1302.6797,994.0825 1301.9949,995.1492 Q1301.3101,996.2158 1301.3101,998.3159 Q1301.3101,1000.4077 1301.9949,1001.4744 Q1302.6797,1002.541 1304.0244,1002.541 Q1304.6553,1002.541 1305.2488,1002.2712 Q1305.8423,1002.0015 1306.4731,1001.4204 Z "/><text fill="#000000" font-family="SansSerif" font-size="12" lengthAdjust="spacingAndGlyphs" textLength="95" x="1324" y="1003.4336">CompoundValue</text><line style="stroke: #A80036; stroke-width: 1.5;" x1="1227.75" x2="1482.75" y1="1014.5" y2="1014.5"/><text fill="#000000" font-family="SansSerif" font-size="11" lengthAdjust="spacingAndGlyphs" textLength="245" x="1232.75" y="1029.5">values: Map&lt;TagType&lt;TagValue&gt;,TagValue&gt;</text><line style="stroke: #A80036; stroke-width: 1.5;" x1="1227.75" x2="1482.75" y1="1035.4551" y2="1035.4551"/><rect fill="#FEFECE" filter="url(#f1)" height="73.9102" style="stroke: #A80036; stroke-width: 1.5;" width="74" x="1246" y="755"/><ellipse cx="1261" cy="771" fill="#EB937F" rx="11" ry="11" style="stroke: #A80036; stroke-width: 1.0;"/><path d="M1265.1143,777 L1257.3945,777 L1257.3945,764.6069 L1265.1143,764.6069 L1265.1143,766.7651 L1259.8433,766.7651 L1259.8433,769.438 L1264.6162,769.438 L1264.6162,771.5962 L1259.8433,771.5962 L1259.8433,774.8418 L1265.1143,774.8418 Z "/><text fill="#000000" font-family="SansSerif" font-size="12" lengthAdjust="spacingAndGlyphs" textLength="42" x="1275" y="775.9336">Answer</text><line style="stroke: #A80036; stroke-width: 1.5;" x1="1247" x2="1319" y1="787" y2="787"/><text fill="#000000" font-family="SansSerif" font-size="11" lengthAdjust="spacingAndGlyphs" textLength="19" x="1252" y="802">YES</text><text fill="#000000" font-family="SansSerif" font-size="11" lengthAdjust="spacingAndGlyphs" textLength="17" x="1252" y="814.9551">NO</text><line style="stroke: #A80036; stroke-width: 1.5;" x1="1247" x2="1319" y1="820.9102" y2="820.9102"/><rect fill="#FEFECE" filter="url(#f1)" height="86.8652" style="stroke: #A80036; stroke-width: 1.5;" width="94" x="788" y="104.5"/><ellipse cx="803" cy="120.5" fill="#ADD1B2" rx="11" ry="11" style="stroke: #A80036; stroke-width: 1.0;"/><path d="M805.9731,126.1431 Q805.3921,126.4419 804.7529,126.5913 Q804.1138,126.7407 803.4082,126.7407 Q800.9014,126.7407 799.5815,125.0889 Q798.2617,123.437 798.2617,120.3159 Q798.2617,117.1865 799.5815,115.5347 Q800.9014,113.8828 803.4082,113.8828 Q804.1138,113.8828 804.7612,114.0322 Q805.4087,114.1816 805.9731,114.4805 L805.9731,117.2031 Q805.3423,116.6221 804.7488,116.3523 Q804.1553,116.0825 803.5244,116.0825 Q802.1797,116.0825 801.4949,117.1492 Q800.8101,118.2158 800.8101,120.3159 Q800.8101,122.4077 801.4949,123.4744 Q802.1797,124.541 803.5244,124.541 Q804.1553,124.541 804.7488,124.2712 Q805.3423,124.0015 805.9731,123.4204 Z "/><text fill="#000000" font-family="SansSerif" font-size="12" lengthAdjust="spacingAndGlyphs" textLength="62" x="817" y="125.4336">ChartEntity</text><line style="stroke: #A80036; stroke-width: 1.5;" x1="789" x2="881" y1="136.5" y2="136.5"/><ellipse cx="799" cy="148.4775" fill="none" rx="3" ry="3" style="stroke: #038048; stroke-width: 1.0;"/><text fill="#000000" font-family="SansSerif" font-size="11" lengthAdjust="spacingAndGlyphs" textLength="51" x="808" y="151.5">id : String</text><ellipse cx="799" cy="161.4326" fill="none" rx="3" ry="3" style="stroke: #038048; stroke-width: 1.0;"/><text fill="#000000" font-family="SansSerif" font-size="11" lengthAdjust="spacingAndGlyphs" textLength="61" x="808" y="164.4551">title : String</text><ellipse cx="799" cy="174.3877" fill="none" rx="3" ry="3" style="stroke: #038048; stroke-width: 1.0;"/><text fill="#000000" font-family="SansSerif" font-size="11" lengthAdjust="spacingAndGlyphs" textLength="65" x="808" y="177.4102">info  : String</text><line style="stroke: #A80036; stroke-width: 1.5;" x1="789" x2="881" y1="183.3652" y2="183.3652"/><rect fill="#FEFECE" filter="url(#f1)" height="86.8652" style="stroke: #A80036; stroke-width: 1.5;" width="138" x="618" y="276"/><ellipse cx="647.85" cy="292" fill="#ADD1B2" rx="11" ry="11" style="stroke: #A80036; stroke-width: 1.0;"/><path d="M650.8231,297.6431 Q650.2421,297.9419 649.6029,298.0913 Q648.9638,298.2407 648.2582,298.2407 Q645.7514,298.2407 644.4315,296.5889 Q643.1117,294.937 643.1117,291.8159 Q643.1117,288.6865 644.4315,287.0347 Q645.7514,285.3828 648.2582,285.3828 Q648.9638,285.3828 649.6112,285.5322 Q650.2587,285.6816 650.8231,285.9805 L650.8231,288.7031 Q650.1923,288.1221 649.5988,287.8523 Q649.0053,287.5825 648.3744,287.5825 Q647.0297,287.5825 646.3449,288.6492 Q645.6601,289.7158 645.6601,291.8159 Q645.6601,293.9077 646.3449,294.9744 Q647.0297,296.041 648.3744,296.041 Q649.0053,296.041 649.5988,295.7712 Q650.1923,295.5015 650.8231,294.9204 Z "/><text fill="#000000" font-family="SansSerif" font-size="12" lengthAdjust="spacingAndGlyphs" textLength="73" x="665.15" y="296.9336">FlowChartSet</text><line style="stroke: #A80036; stroke-width: 1.5;" x1="619" x2="755" y1="308" y2="308"/><ellipse cx="629" cy="319.9775" fill="none" rx="3" ry="3" style="stroke: #038048; stroke-width: 1.0;"/><text fill="#000000" font-family="SansSerif" font-size="11" lengthAdjust="spacingAndGlyphs" textLength="67" x="638" y="323">source : URL</text><ellipse cx="629" cy="332.9326" fill="none" rx="3" ry="3" style="stroke: #038048; stroke-width: 1.0;"/><text fill="#000000" font-family="SansSerif" font-size="11" lengthAdjust="spacingAndGlyphs" textLength="105" x="638" y="335.9551">charts : FlowChart[]</text><ellipse cx="629" cy="345.8877" fill="none" rx="3" ry="3" style="stroke: #038048; stroke-width: 1.0;"/><text fill="#000000" font-family="SansSerif" font-size="11" lengthAdjust="spacingAndGlyphs" textLength="112" x="638" y="348.9102">tagTypes : TagType[]</text><line style="stroke: #A80036; stroke-width: 1.5;" x1="619" x2="755" y1="354.8652" y2="354.8652"/><rect fill="#FEFECE" filter="url(#f1)" height="86.8652" style="stroke: #A80036; stroke-width: 1.5;" width="153" x="661" y="522"/><ellipse cx="705.25" cy="538" fill="#ADD1B2" rx="11" ry="11" style="stroke: #A80036; stroke-width: 1.0;"/><path d="M708.2231,543.6431 Q707.6421,543.9419 707.0029,544.0913 Q706.3638,544.2407 705.6582,544.2407 Q703.1514,544.2407 701.8315,542.5889 Q700.5117,540.937 700.5117,537.8159 Q700.5117,534.6865 701.8315,533.0347 Q703.1514,531.3828 705.6582,531.3828 Q706.3638,531.3828 707.0112,531.5322 Q707.6587,531.6816 708.2231,531.9805 L708.2231,534.7031 Q707.5923,534.1221 706.9988,533.8523 Q706.4053,533.5825 705.7744,533.5825 Q704.4297,533.5825 703.7449,534.6492 Q703.0601,535.7158 703.0601,537.8159 Q703.0601,539.9077 703.7449,540.9744 Q704.4297,542.041 705.7744,542.041 Q706.4053,542.041 706.9988,541.7712 Q707.5923,541.5015 708.2231,540.9204 Z "/><text fill="#000000" font-family="SansSerif" font-size="12" lengthAdjust="spacingAndGlyphs" textLength="56" x="725.75" y="542.9336">FlowChart</text><line style="stroke: #A80036; stroke-width: 1.5;" x1="662" x2="813" y1="554" y2="554"/><ellipse cx="672" cy="565.9775" fill="none" rx="3" ry="3" style="stroke: #038048; stroke-width: 1.0;"/><text fill="#000000" font-family="SansSerif" font-size="11" lengthAdjust="spacingAndGlyphs" textLength="67" x="681" y="569">source : URL</text><ellipse cx="672" cy="578.9326" fill="none" rx="3" ry="3" style="stroke: #038048; stroke-width: 1.0;"/><text fill="#000000" font-family="SansSerif" font-size="11" lengthAdjust="spacingAndGlyphs" textLength="111" x="681" y="581.9551">start  : DecisionNode</text><ellipse cx="672" cy="591.8877" fill="none" rx="3" ry="3" style="stroke: #038048; stroke-width: 1.0;"/><text fill="#000000" font-family="SansSerif" font-size="11" lengthAdjust="spacingAndGlyphs" textLength="127" x="681" y="594.9102">nodes  : DecisionNode[]</text><line style="stroke: #A80036; stroke-width: 1.5;" x1="662" x2="813" y1="600.8652" y2="600.8652"/><rect fill="#FEFECE" filter="url(#f1)" height="60.9551" style="stroke: #A80036; stroke-width: 1.5;" width="117" x="815.75" y="761.5"/><ellipse cx="855.05" cy="777.5" fill="#ADD1B2" rx="11" ry="11" style="stroke: #A80036; stroke-width: 1.0;"/><path d="M858.0231,783.1431 Q857.4421,783.4419 856.8029,783.5913 Q856.1638,783.7407 855.4582,783.7407 Q852.9514,783.7407 851.6315,782.0889 Q850.3117,780.437 850.3117,777.3159 Q850.3117,774.1865 851.6315,772.5347 Q852.9514,770.8828 855.4582,770.8828 Q856.1638,770.8828 856.8112,771.0322 Q857.4587,771.1816 858.0231,771.4805 L858.0231,774.2031 Q857.3923,773.6221 856.7988,773.3523 Q856.2053,773.0825 855.5744,773.0825 Q854.2297,773.0825 853.5449,774.1492 Q852.8601,775.2158 852.8601,777.3159 Q852.8601,779.4077 853.5449,780.4744 Q854.2297,781.541 855.5744,781.541 Q856.2053,781.541 856.7988,781.2712 Q857.3923,781.0015 858.0231,780.4204 Z "/><text fill="#000000" font-family="SansSerif" font-size="12" lengthAdjust="spacingAndGlyphs" textLength="31" x="874.45" y="782.4336">Node</text><line style="stroke: #A80036; stroke-width: 1.5;" x1="816.75" x2="931.75" y1="793.5" y2="793.5"/><ellipse cx="826.75" cy="805.4775" fill="none" rx="3" ry="3" style="stroke: #038048; stroke-width: 1.0;"/><text fill="#000000" font-family="SansSerif" font-size="11" lengthAdjust="spacingAndGlyphs" textLength="91" x="835.75" y="808.5">chart : FlowChart</text><line style="stroke: #A80036; stroke-width: 1.5;" x1="816.75" x2="931.75" y1="814.4551" y2="814.4551"/><rect fill="#FEFECE" filter="url(#f1)" height="73.9102" style="stroke: #A80036; stroke-width: 1.5;" width="84" x="758" y="976"/><ellipse cx="773" cy="992" fill="#ADD1B2" rx="11" ry="11" style="stroke: #A80036; stroke-width: 1.0;"/><path d="M775.9731,997.6431 Q775.3921,997.9419 774.7529,998.0913 Q774.1138,998.2407 773.4082,998.2407 Q770.9014,998.2407 769.5815,996.5889 Q768.2617,994.937 768.2617,991.8159 Q768.2617,988.6865 769.5815,987.0347 Q770.9014,985.3828 773.4082,985.3828 Q774.1138,985.3828 774.7612,985.5322 Q775.4087,985.6816 775.9731,985.9805 L775.9731,988.7031 Q775.3423,988.1221 774.7488,987.8523 Q774.1553,987.5825 773.5244,987.5825 Q772.1797,987.5825 771.4949,988.6492 Q770.8101,989.7158 770.8101,991.8159 Q770.8101,993.9077 771.4949,994.9744 Q772.1797,996.041 773.5244,996.041 Q774.1553,996.041 774.7488,995.7712 Q775.3423,995.5015 775.9731,994.9204 Z "/><text fill="#000000" font-family="SansSerif" font-size="12" lengthAdjust="spacingAndGlyphs" textLength="52" x="787" y="996.9336">AskNode</text><line style="stroke: #A80036; stroke-width: 1.5;" x1="759" x2="841" y1="1008" y2="1008"/><ellipse cx="769" cy="1019.9775" fill="none" rx="3" ry="3" style="stroke: #038048; stroke-width: 1.0;"/><text fill="#000000" font-family="SansSerif" font-size="11" lengthAdjust="spacingAndGlyphs" textLength="55" x="778" y="1023">yes : Node</text><ellipse cx="769" cy="1032.9326" fill="none" rx="3" ry="3" style="stroke: #038048; stroke-width: 1.0;"/><text fill="#000000" font-family="SansSerif" font-size="11" lengthAdjust="spacingAndGlyphs" textLength="54" x="778" y="1035.9551">no  : Node</text><line style="stroke: #A80036; stroke-width: 1.5;" x1="759" x2="841" y1="1041.9102" y2="1041.9102"/><rect fill="#FEFECE" filter="url(#f1)" height="60.9551" style="stroke: #A80036; stroke-width: 1.5;" width="115" x="1014.75" y="982.5"/><ellipse cx="1031.55" cy="998.5" fill="#ADD1B2" rx="11" ry="11" style="stroke: #A80036; stroke-width: 1.0;"/><path d="M1034.5231,1004.1431 Q1033.9421,1004.4419 1033.3029,1004.5913 Q1032.6638,1004.7407 1031.9582,1004.7407 Q1029.4514,1004.7407 1028.1315,1003.0889 Q1026.8117,1001.437 1026.8117,998.3159 Q1026.8117,995.1865 1028.1315,993.5347 Q1029.4514,991.8828 1031.9582,991.8828 Q1032.6638,991.8828 1033.3112,992.0322 Q1033.9587,992.1816 1034.5231,992.4805 L1034.5231,995.2031 Q1033.8923,994.6221 1033.2988,994.3523 Q1032.7053,994.0825 1032.0744,994.0825 Q1030.7297,994.0825 1030.0449,995.1492 Q1029.3601,996.2158 1029.3601,998.3159 Q1029.3601,1000.4077 1030.0449,1001.4744 Q1030.7297,1002.541 1032.0744,1002.541 Q1032.7053,1002.541 1033.2988,1002.2712 Q1033.8923,1002.0015 1034.5231,1001.4204 Z "/><text fill="#000000" font-family="SansSerif" font-size="12" lengthAdjust="spacingAndGlyphs" textLength="79" x="1045.95" y="1003.4336">ThroughNode</text><line style="stroke: #A80036; stroke-width: 1.5;" x1="1015.75" x2="1128.75" y1="1014.5" y2="1014.5"/><ellipse cx="1025.75" cy="1026.4775" fill="none" rx="3" ry="3" style="stroke: #038048; stroke-width: 1.0;"/><text fill="#000000" font-family="SansSerif" font-size="11" lengthAdjust="spacingAndGlyphs" textLength="89" x="1034.75" y="1029.5">nextNode : Node</text><line style="stroke: #A80036; stroke-width: 1.5;" x1="1015.75" x2="1128.75" y1="1035.4551" y2="1035.4551"/><rect fill="#FEFECE" filter="url(#f1)" height="48" style="stroke: #A80036; stroke-width: 1.5;" width="93" x="1036.75" y="1161"/><ellipse cx="1051.75" cy="1177" fill="#ADD1B2" rx="11" ry="11" style="stroke: #A80036; stroke-width: 1.0;"/><path d="M1054.7231,1182.6431 Q1054.1421,1182.9419 1053.5029,1183.0913 Q1052.8638,1183.2407 1052.1582,1183.2407 Q1049.6514,1183.2407 1048.3315,1181.5889 Q1047.0117,1179.937 1047.0117,1176.8159 Q1047.0117,1173.6865 1048.3315,1172.0347 Q1049.6514,1170.3828 1052.1582,1170.3828 Q1052.8638,1170.3828 1053.5112,1170.5322 Q1054.1587,1170.6816 1054.7231,1170.9805 L1054.7231,1173.7031 Q1054.0923,1173.1221 1053.4988,1172.8523 Q1052.9053,1172.5825 1052.2744,1172.5825 Q1050.9297,1172.5825 1050.2449,1173.6492 Q1049.5601,1174.7158 1049.5601,1176.8159 Q1049.5601,1178.9077 1050.2449,1179.9744 Q1050.9297,1181.041 1052.2744,1181.041 Q1052.9053,1181.041 1053.4988,1180.7712 Q1054.0923,1180.5015 1054.7231,1179.9204 Z "/><text fill="#000000" font-family="SansSerif" font-size="12" lengthAdjust="spacingAndGlyphs" textLength="61" x="1065.75" y="1181.9336">TodoNode</text><line style="stroke: #A80036; stroke-width: 1.5;" x1="1037.75" x2="1128.75" y1="1193" y2="1193"/><line style="stroke: #A80036; stroke-width: 1.5;" x1="1037.75" x2="1128.75" y1="1201" y2="1201"/><rect fill="#FEFECE" filter="url(#f1)" height="60.9551" style="stroke: #A80036; stroke-width: 1.5;" width="134" x="867" y="1154.5"/><ellipse cx="906.3" cy="1170.5" fill="#ADD1B2" rx="11" ry="11" style="stroke: #A80036; stroke-width: 1.0;"/><path d="M909.2731,1176.1431 Q908.6921,1176.4419 908.0529,1176.5913 Q907.4138,1176.7407 906.7082,1176.7407 Q904.2014,1176.7407 902.8815,1175.0889 Q901.5617,1173.437 901.5617,1170.3159 Q901.5617,1167.1865 902.8815,1165.5347 Q904.2014,1163.8828 906.7082,1163.8828 Q907.4138,1163.8828 908.0612,1164.0322 Q908.7087,1164.1816 909.2731,1164.4805 L909.2731,1167.2031 Q908.6423,1166.6221 908.0488,1166.3523 Q907.4553,1166.0825 906.8244,1166.0825 Q905.4797,1166.0825 904.7949,1167.1492 Q904.1101,1168.2158 904.1101,1170.3159 Q904.1101,1172.4077 904.7949,1173.4744 Q905.4797,1174.541 906.8244,1174.541 Q907.4553,1174.541 908.0488,1174.2712 Q908.6423,1174.0015 909.2731,1173.4204 Z "/><text fill="#000000" font-family="SansSerif" font-size="12" lengthAdjust="spacingAndGlyphs" textLength="48" x="925.7" y="1175.4336">SetNode</text><line style="stroke: #A80036; stroke-width: 1.5;" x1="868" x2="1000" y1="1186.5" y2="1186.5"/><ellipse cx="878" cy="1198.4775" fill="none" rx="3" ry="3" style="stroke: #038048; stroke-width: 1.0;"/><text fill="#000000" font-family="SansSerif" font-size="11" lengthAdjust="spacingAndGlyphs" textLength="108" x="887" y="1201.5">dataTags : DataTags</text><line style="stroke: #A80036; stroke-width: 1.5;" x1="868" x2="1000" y1="1207.4551" y2="1207.4551"/><rect fill="#FEFECE" filter="url(#f1)" height="73.9102" style="stroke: #A80036; stroke-width: 1.5;" width="138" x="694" y="1148"/><ellipse cx="733.3" cy="1164" fill="#ADD1B2" rx="11" ry="11" style="stroke: #A80036; stroke-width: 1.0;"/><path d="M736.2731,1169.6431 Q735.6921,1169.9419 735.0529,1170.0913 Q734.4138,1170.2407 733.7082,1170.2407 Q731.2014,1170.2407 729.8815,1168.5889 Q728.5617,1166.937 728.5617,1163.8159 Q728.5617,1160.6865 729.8815,1159.0347 Q731.2014,1157.3828 733.7082,1157.3828 Q734.4138,1157.3828 735.0612,1157.5322 Q735.7087,1157.6816 736.2731,1157.9805 L736.2731,1160.7031 Q735.6423,1160.1221 735.0488,1159.8523 Q734.4553,1159.5825 733.8244,1159.5825 Q732.4797,1159.5825 731.7949,1160.6492 Q731.1101,1161.7158 731.1101,1163.8159 Q731.1101,1165.9077 731.7949,1166.9744 Q732.4797,1168.041 733.8244,1168.041 Q734.4553,1168.041 735.0488,1167.7712 Q735.6423,1167.5015 736.2731,1166.9204 Z "/><text fill="#000000" font-family="SansSerif" font-size="12" lengthAdjust="spacingAndGlyphs" textLength="52" x="752.7" y="1168.9336">CallNode</text><line style="stroke: #A80036; stroke-width: 1.5;" x1="695" x2="831" y1="1180" y2="1180"/><ellipse cx="705" cy="1191.9775" fill="none" rx="3" ry="3" style="stroke: #038048; stroke-width: 1.0;"/><text fill="#000000" font-family="SansSerif" font-size="11" lengthAdjust="spacingAndGlyphs" textLength="111" x="714" y="1195">calleeChartId : String</text><ellipse cx="705" cy="1204.9326" fill="none" rx="3" ry="3" style="stroke: #038048; stroke-width: 1.0;"/><text fill="#000000" font-family="SansSerif" font-size="11" lengthAdjust="spacingAndGlyphs" textLength="112" x="714" y="1207.9551">calleeNodeId  : String</text><line style="stroke: #A80036; stroke-width: 1.5;" x1="695" x2="831" y1="1213.9102" y2="1213.9102"/><rect fill="#FEFECE" filter="url(#f1)" height="48" style="stroke: #A80036; stroke-width: 1.5;" width="85" x="637.75" y="989"/><ellipse cx="652.75" cy="1005" fill="#ADD1B2" rx="11" ry="11" style="stroke: #A80036; stroke-width: 1.0;"/><path d="M655.7231,1010.6431 Q655.1421,1010.9419 654.5029,1011.0913 Q653.8638,1011.2407 653.1582,1011.2407 Q650.6514,1011.2407 649.3315,1009.5889 Q648.0117,1007.937 648.0117,1004.8159 Q648.0117,1001.6865 649.3315,1000.0347 Q650.6514,998.3828 653.1582,998.3828 Q653.8638,998.3828 654.5112,998.5322 Q655.1587,998.6816 655.7231,998.9805 L655.7231,1001.7031 Q655.0923,1001.1221 654.4988,1000.8523 Q653.9053,1000.5825 653.2744,1000.5825 Q651.9297,1000.5825 651.2449,1001.6492 Q650.5601,1002.7158 650.5601,1004.8159 Q650.5601,1006.9077 651.2449,1007.9744 Q651.9297,1009.041 653.2744,1009.041 Q653.9053,1009.041 654.4988,1008.7712 Q655.0923,1008.5015 655.7231,1007.9204 Z "/><text fill="#000000" font-family="SansSerif" font-size="12" lengthAdjust="spacingAndGlyphs" textLength="53" x="666.75" y="1009.9336">EndNode</text><line style="stroke: #A80036; stroke-width: 1.5;" x1="638.75" x2="721.75" y1="1021" y2="1021"/><line style="stroke: #A80036; stroke-width: 1.5;" x1="638.75" x2="721.75" y1="1029" y2="1029"/><path d="M855.25,211.08 C856.235,214.76 857.161,218.42 858,222 C861.283,236.02 861.739,239.66 863,254 C879.955,446.75 876.651,679.835 874.791,761.235 " fill="none" style="stroke: #A80036; stroke-width: 1.0;"/><polygon fill="none" points="848.433,212.71,849.587,191.55,861.88,208.81,848.433,212.71" style="stroke: #A80036; stroke-width: 1.0;"/><path d="M847.219,211.28 C857.371,278.05 865.114,385.8 830,470 C821.914,489.39 807.758,506.983 792.939,521.567 " fill="none" style="stroke: #A80036; stroke-width: 1.0;"/><polygon fill="none" points="840.31,212.41,843.963,191.54,854.124,210.13,840.31,212.41" style="stroke: #A80036; stroke-width: 1.0;"/><path d="M784.374,206.81 C764.497,229.51 742.113,255.07 723.822,275.95 " fill="none" style="stroke: #A80036; stroke-width: 1.0;"/><polygon fill="none" points="779.211,202.08,797.653,191.65,789.743,211.3,779.211,202.08" style="stroke: #A80036; stroke-width: 1.0;"/><path d="M830.988,837.041 C824.387,843.498 817.579,849.992 811,856 C795.621,870.045 783.834,867.139 775,886 C761.662,914.476 770.601,949.808 781.323,975.804 " fill="none" style="stroke: #A80036; stroke-width: 1.0;"/><polygon fill="none" points="826.253,831.877,845.368,822.733,836.128,841.802,826.253,831.877" style="stroke: #A80036; stroke-width: 1.0;"/><path d="M796.942,962.886 C796.993,939.055 799.367,910.381 808,886 C814.711,867.045 826.486,848.493 838.249,833.007 " fill="none" style="stroke: #A80036; stroke-width: 1.0;"/><polygon fill="#A80036" points="846.329,822.808,837.6046,827.378,843.2239,826.7269,843.8749,832.3462,846.329,822.808" style="stroke: #A80036; stroke-width: 1.0;"/><line style="stroke: #A80036; stroke-width: 1.0;" x1="843.2239" x2="838.256" y1="826.7269" y2="832.9975"/><polygon fill="none" points="797.139,975.927,801.0482,969.8675,796.9583,963.9284,793.0491,969.9879,797.139,975.927" style="stroke: #A80036; stroke-width: 1.0;"/><text fill="#000000" font-family="SansSerif" font-size="13" lengthAdjust="spacingAndGlyphs" textLength="22" x="809" y="900">YES</text><path d="M816.812,963.206 C823.171,944.678 830.452,923.375 837,904 C844.665,881.318 853.115,855.993 860.003,835.267 " fill="none" style="stroke: #A80036; stroke-width: 1.0;"/><polygon fill="#A80036" points="864.173,822.704,857.5413,829.9855,862.5978,827.4494,865.1339,832.5059,864.173,822.704" style="stroke: #A80036; stroke-width: 1.0;"/><line style="stroke: #A80036; stroke-width: 1.0;" x1="862.5978" x2="860.0775" y1="827.4494" y2="835.0415"/><polygon fill="none" points="812.578,975.532,818.3106,971.1574,816.4774,964.1832,810.7448,968.5578,812.578,975.532" style="stroke: #A80036; stroke-width: 1.0;"/><text fill="#000000" font-family="SansSerif" font-size="13" lengthAdjust="spacingAndGlyphs" textLength="20" x="844" y="900">NO</text><path d="M950.812,823.367 C980.133,838.337 1011.62,859.057 1033,886 C1055.28,914.07 1064.89,954.909 1069,982.415 " fill="none" style="stroke: #A80036; stroke-width: 1.0;"/><polygon fill="none" points="947.473,829.529,932.466,814.569,953.526,816.906,947.473,829.529" style="stroke: #A80036; stroke-width: 1.0;"/><path d="M1039.01,972.175 C1023.46,953.673 1004.522,931.501 987,912 C962.674,884.927 934.486,855.241 912.35,832.291 " fill="none" style="stroke: #A80036; stroke-width: 1.0;"/><polygon fill="#A80036" points="903.262,822.894,906.6435,832.1442,906.738,826.4881,912.394,826.5826,903.262,822.894" style="stroke: #A80036; stroke-width: 1.0;"/><line style="stroke: #A80036; stroke-width: 1.0;" x1="906.738" x2="912.2995" y1="826.4881" y2="832.239"/><polygon fill="none" points="1047.5,982.316,1046.712,975.1481,1039.7924,973.1186,1040.5804,980.2865,1047.5,982.316" style="stroke: #A80036; stroke-width: 1.0;"/><text fill="#000000" font-family="SansSerif" font-size="13" lengthAdjust="spacingAndGlyphs" textLength="28" x="980" y="900">next</text><path d="M832.905,836.829 C825.852,843.54 818.403,850.166 811,856 C790.944,871.805 781.382,869.375 762,886 C728.322,914.886 703.212,960.971 690.142,988.675 " fill="none" style="stroke: #A80036; stroke-width: 1.0;"/><polygon fill="none" points="827.984,831.851,847.108,822.725,837.848,841.785,827.984,831.851" style="stroke: #A80036; stroke-width: 1.0;"/><path d="M1017.3,1055.775 C989.375,1076.028 954.331,1099.836 921,1118 C890.56,1134.588 880.989,1134.64 849,1148 C843.623,1150.246 838.058,1152.571 832.463,1154.911 " fill="none" style="stroke: #A80036; stroke-width: 1.0;"/><polygon fill="none" points="1013.44,1049.927,1033.69,1043.706,1021.74,1061.201,1013.44,1049.927" style="stroke: #A80036; stroke-width: 1.0;"/><path d="M1075.22,1063.776 C1077.3,1095.897 1079.91,1136.171 1081.51,1160.99 " fill="none" style="stroke: #A80036; stroke-width: 1.0;"/><polygon fill="none" points="1068.22,1064.022,1073.92,1043.612,1082.19,1063.118,1068.22,1064.022" style="stroke: #A80036; stroke-width: 1.0;"/><path d="M1040.5,1060.535 C1027.56,1078.867 1012.1,1099.837 997,1118 C986.773,1130.304 974.81,1143.172 964.072,1154.245 " fill="none" style="stroke: #A80036; stroke-width: 1.0;"/><polygon fill="none" points="1034.87,1056.372,1052.03,1043.946,1046.36,1064.363,1034.87,1056.372" style="stroke: #A80036; stroke-width: 1.0;"/><path d="M354.858,1028.555 C304.289,1041.253 234.083,1063.799 181,1100 C157.216,1116.22 136.389,1142.015 123.133,1160.744 " fill="none" style="stroke: #A80036; stroke-width: 1.0;"/><polygon fill="none" points="353.467,1021.691,374.546,1023.858,356.717,1035.308,353.467,1021.691" style="stroke: #A80036; stroke-width: 1.0;"/><path d="M356,1036.9 C306.745,1057.4 241.734,1093.191 209,1148 C167.907,1216.806 195.18,1316.451 213.016,1365.484 " fill="none" style="stroke: #A80036; stroke-width: 1.0;"/><polygon fill="none" points="353.496,1030.363,374.669,1029.536,358.633,1043.387,353.496,1030.363" style="stroke: #A80036; stroke-width: 1.0;"/><path d="M380.642,1066.166 C358.445,1095.022 331.497,1130.054 312.78,1154.386 " fill="none" style="stroke: #A80036; stroke-width: 1.0;"/><polygon fill="none" points="375.321,1061.601,393.064,1050.017,386.418,1070.137,375.321,1061.601" style="stroke: #A80036; stroke-width: 1.0;"/><path d="M418.144,1070.626 C418.846,1086.186 420.771,1102.951 425,1118 C428.531,1130.565 434.796,1143.385 441.121,1154.343 " fill="none" style="stroke: #A80036; stroke-width: 1.0;"/><polygon fill="none" points="411.142,1070.531,417.844,1050.429,425.14,1070.323,411.142,1070.531" style="stroke: #A80036; stroke-width: 1.0;"/><path d="M453.815,1154.386 C447.14,1126.871 437.145,1085.671 429.751,1055.194 " fill="none" style="stroke: #A80036; stroke-width: 1.0;"/><polygon fill="#A80036" points="428.495,1050.017,426.7314,1059.7067,429.6747,1054.8758,434.5056,1057.8191,428.495,1050.017" style="stroke: #A80036; stroke-width: 1.0;"/><text fill="#000000" font-family="SansSerif" font-size="13" lengthAdjust="spacingAndGlyphs" textLength="65" x="446" y="1114">fieldTypes</text><text fill="#000000" font-family="SansSerif" font-size="13" lengthAdjust="spacingAndGlyphs" textLength="22" x="402.4281" y="1071.2695">0..*</text><path d="M1524.33,855.38 C1536.15,899.808 1551.47,957.374 1559.85,988.877 " fill="none" style="stroke: #A80036; stroke-width: 1.0;"/><polygon fill="none" points="1517.56,857.16,1519.18,836.033,1531.09,853.56,1517.56,857.16" style="stroke: #A80036; stroke-width: 1.0;"/><path d="M1576.01,827.573 C1603.55,843.089 1634.55,863.157 1659,886 C1689.53,914.525 1715.9,955.074 1731.84,982.4 " fill="none" style="stroke: #A80036; stroke-width: 1.0;"/><polygon fill="none" points="1572.29,833.52,1558.07,817.817,1578.98,821.221,1572.29,833.52" style="stroke: #A80036; stroke-width: 1.0;"/><path d="M1484.12,854.654 C1476.47,871.246 1467.28,888.825 1457,904 C1437.33,933.038 1409.77,961.703 1388.26,982.197 " fill="none" style="stroke: #A80036; stroke-width: 1.0;"/><polygon fill="none" points="1477.78,851.685,1492.22,836.179,1490.6,857.307,1477.78,851.685" style="stroke: #A80036; stroke-width: 1.0;"/><path d="M1353.95,982.468 C1354.35,955.377 1358.49,915.151 1377,886 C1395.02,857.611 1425.28,835.505 1452.17,820.086 " fill="none" style="stroke: #A80036; stroke-width: 1.0;"/><polygon fill="#A80036" points="1456.8,817.477,1446.9935,818.3893,1452.4387,819.9222,1450.9058,825.3674,1456.8,817.477" style="stroke: #A80036; stroke-width: 1.0;"/><text fill="#000000" font-family="SansSerif" font-size="13" lengthAdjust="spacingAndGlyphs" textLength="69" x="1378" y="900">fieldValues</text><text fill="#000000" font-family="SansSerif" font-size="13" lengthAdjust="spacingAndGlyphs" textLength="22" x="1426.9422" y="816.1941">0..*</text><path d="M1573.61,841.384 C1595.51,860.728 1617.71,884.939 1631,912 C1670.17,991.742 1680.07,1266.967 1682.36,1362.792 " fill="none" style="stroke: #A80036; stroke-width: 1.0;"/><polygon fill="none" points="1569.06,846.703,1558.22,828.492,1578.05,835.972,1569.06,846.703" style="stroke: #A80036; stroke-width: 1.0;"/><path d="M1327.88,1061.088 C1292.24,1119.749 1224.81,1220.251 1146,1286 C1105.72,1319.603 1053.36,1346.651 1010.75,1365.398 " fill="none" style="stroke: #A80036; stroke-width: 1.0;"/><polygon fill="none" points="1322.05,1057.196,1338.31,1043.609,1334.07,1064.371,1322.05,1057.196" style="stroke: #A80036; stroke-width: 1.0;"/><path d="M678.644,375.23 C676.105,403.95 675.827,439.37 684,470 C687.677,483.78 693.911,497.65 700.865,510.331 " fill="none" style="stroke: #A80036; stroke-width: 1.0;"/><polygon fill="#A80036" points="707.401,521.614,706.3517,511.8212,704.8951,517.2873,699.429,515.8307,707.401,521.614" style="stroke: #A80036; stroke-width: 1.0;"/><line style="stroke: #A80036; stroke-width: 1.0;" x1="704.8951" x2="700.8845" y1="517.2873" y2="510.3645"/><polygon fill="#A80036" points="679.996,362.13,675.4037,367.6898,678.7696,374.0672,683.3618,368.5074,679.996,362.13" style="stroke: #A80036; stroke-width: 1.0;"/><text fill="#000000" font-family="SansSerif" font-size="13" lengthAdjust="spacingAndGlyphs" textLength="39" x="735" y="426.5">charts</text><polygon fill="#FBFB77" filter="url(#f1)" points="689,434.8105,689,459.8105,816,459.8105,816,444.8105,806,434.8105,689,434.8105" style="stroke: #A80036; stroke-width: 1.0;"/><line style="stroke: #A80036; stroke-width: 1.0;" x1="806" x2="806" y1="434.8105" y2="444.8105"/><line style="stroke: #A80036; stroke-width: 1.0;" x1="816" x2="806" y1="444.8105" y2="444.8105"/><text fill="#000000" font-family="SansSerif" font-size="13" lengthAdjust="spacingAndGlyphs" textLength="106" x="695" y="452.8105">Mapped by name</text><text fill="#000000" font-family="SansSerif" font-size="13" lengthAdjust="spacingAndGlyphs" textLength="8" x="662.4432" y="383.6063">1</text><text fill="#000000" font-family="SansSerif" font-size="13" lengthAdjust="spacingAndGlyphs" textLength="6" x="687.2814" y="511.6">*</text><path d="M771.361,619.373 C783.889,639.561 798.193,662.782 811,684 C824.069,705.651 838.391,729.93 850.072,749.88 " fill="none" style="stroke: #A80036; stroke-width: 1.0;"/><polygon fill="#A80036" points="856.792,761.376,855.7036,751.5875,854.2688,757.0593,848.7969,755.6246,856.792,761.376" style="stroke: #A80036; stroke-width: 1.0;"/><line style="stroke: #A80036; stroke-width: 1.0;" x1="854.2688" x2="850.231" y1="757.0593" y2="750.153"/><polygon fill="none" points="764.41,608.189,764.1801,615.3964,770.7447,618.3807,770.9746,611.1733,764.41,608.189" style="stroke: #A80036; stroke-width: 1.0;"/><text fill="#000000" font-family="SansSerif" font-size="13" lengthAdjust="spacingAndGlyphs" textLength="29" x="807" y="672">start</text><path d="M934,1228.751 C934,1264.834 934,1316.234 934,1352.302 " fill="none" style="stroke: #A80036; stroke-width: 1.0;"/><polygon fill="#A80036" points="934,1365.311,938,1356.311,934,1360.311,930,1356.311,934,1365.311" style="stroke: #A80036; stroke-width: 1.0;"/><line style="stroke: #A80036; stroke-width: 1.0;" x1="934" x2="934" y1="1360.311" y2="1352.311"/><polygon fill="none" points="934,1215.501,930,1221.501,934,1227.501,938,1221.501,934,1215.501" style="stroke: #A80036; stroke-width: 1.0;"/><text fill="#000000" font-family="SansSerif" font-size="13" lengthAdjust="spacingAndGlyphs" textLength="27" x="935" y="1308">tags</text><path d="M803.402,1147.949 C823.744,1127.286 846.654,1099.614 859,1070 C892.933,988.611 886,881.95 879.3,827.799 " fill="none" style="stroke: #A80036; stroke-width: 1.0;"/><polygon fill="#A80036" points="878.653,822.725,875.8216,832.1581,879.2844,827.685,883.7575,831.1478,878.653,822.725" style="stroke: #A80036; stroke-width: 1.0;"/><text fill="#000000" font-family="SansSerif" font-size="13" lengthAdjust="spacingAndGlyphs" textLength="28" x="904" y="998.5">next</text><polygon fill="#FBFB77" filter="url(#f1)" points="890,1006.8105,890,1031.8105,942,1031.8105,942,1016.8105,932,1006.8105,890,1006.8105" style="stroke: #A80036; stroke-width: 1.0;"/><line style="stroke: #A80036; stroke-width: 1.0;" x1="932" x2="932" y1="1006.8105" y2="1016.8105"/><line style="stroke: #A80036; stroke-width: 1.0;" x1="942" x2="932" y1="1016.8105" y2="1016.8105"/><text fill="#000000" font-family="SansSerif" font-size="13" lengthAdjust="spacingAndGlyphs" textLength="31" x="896" y="1024.8105">by id</text><path d="M519.546,1227.007 C549.073,1246.53 585.975,1269.217 621,1286 C688.718,1318.449 768.732,1346.14 830.908,1365.492 " fill="none" style="stroke: #A80036; stroke-width: 1.0;"/><polygon fill="none" points="515.335,1232.611,502.641,1215.645,523.145,1220.992,515.335,1232.611" style="stroke: #A80036; stroke-width: 1.0;"/><path d="M1742.95,1043.657 C1731.3,1112.133 1702.53,1281.213 1689.55,1357.53 " fill="none" style="stroke: #A80036; stroke-width: 1.0;"/><polygon fill="#A80036" points="1688.64,1362.862,1694.0929,1354.6604,1689.4787,1357.9328,1686.2063,1353.3186,1688.64,1362.862" style="stroke: #A80036; stroke-width: 1.0;"/><text fill="#000000" font-family="SansSerif" font-size="13" lengthAdjust="spacingAndGlyphs" textLength="35" x="1726" y="1190">items</text><text fill="#000000" font-family="SansSerif" font-size="13" lengthAdjust="spacingAndGlyphs" textLength="22" x="1664.6328" y="1352.6273">0..*</text><path d="M259.895,1215.526 C241.58,1235.688 219.872,1264.086 210,1294 C202.932,1315.416 206.593,1340.489 212.066,1360.296 " fill="none" style="stroke: #A80036; stroke-width: 1.0;"/><polygon fill="#A80036" points="213.49,1365.213,214.8268,1355.4553,212.0983,1360.4106,207.143,1357.682,213.49,1365.213" style="stroke: #A80036; stroke-width: 1.0;"/><text fill="#000000" font-family="SansSerif" font-size="13" lengthAdjust="spacingAndGlyphs" textLength="58" x="211" y="1308">itemType</text><path d="M670.8,362.05 C623.048,485.99 483.236,848.871 435.888,971.763 " fill="none" style="stroke: #A80036; stroke-width: 1.0;"/><polygon fill="#A80036" points="433.973,976.733,440.9425,969.7741,435.7714,972.0676,433.4779,966.8966,433.973,976.733" style="stroke: #A80036; stroke-width: 1.0;"/><text fill="#000000" font-family="SansSerif" font-size="13" lengthAdjust="spacingAndGlyphs" textLength="57" x="558" y="672">tagTypes</text><text fill="#000000" font-family="SansSerif" font-size="13" lengthAdjust="spacingAndGlyphs" textLength="22" x="411.2751" y="966.7556">0..*</text><path d="M1456.8,817.263 C1423.43,831.237 1378.52,847.842 1337,856 C1174.2,887.987 747.442,830.749 591,886 C539.902,904.046 491.271,943.047 459.027,973.099 " fill="none" style="stroke: #A80036; stroke-width: 1.0;"/><polygon fill="#A80036" points="455.177,976.718,464.4749,973.4701,458.8208,973.2942,458.9968,967.64,455.177,976.718" style="stroke: #A80036; stroke-width: 1.0;"/><text fill="#000000" font-family="SansSerif" font-size="13" lengthAdjust="spacingAndGlyphs" textLength="27" x="592" y="900">type</text></g></svg>