<?xml version="1.0" encoding="UTF-8" standalone="no"?>
<!DOCTYPE svg PUBLIC "-//W3C//DTD SVG 1.1//EN"
 "http://www.w3.org/Graphics/SVG/1.1/DTD/svg11.dtd">
<!-- Generated by graphviz version 2.30.1 (20130415.0333)
 -->
<!-- Title: ChartSet Pages: 1 -->
<svg width="280pt" height="526pt"
 viewBox="0.00 0.00 280.00 526.00" xmlns="http://www.w3.org/2000/svg" xmlns:xlink="http://www.w3.org/1999/xlink">
<g id="graph0" class="graph" transform="scale(1 1) rotate(0) translate(4 522)">
<title>ChartSet</title>
<polygon fill="white" stroke="white" points="-4,5 -4,-522 277,-522 277,5 -4,5"/>
<g id="clust1" class="cluster"><title>cluster_flowChart_main</title>
<polygon fill="none" stroke="black" points="8,-76 8,-510 143,-510 143,-76 8,-76"/>
<text text-anchor="middle" x="75.5" y="-492" font-family="Times,serif" font-size="14.00">flowChart&#45;main</text>
</g>
<g id="clust2" class="cluster"><title>cluster_flowChart_sub</title>
<polygon fill="none" stroke="black" points="151,-8 151,-228 264,-228 264,-8 151,-8"/>
<text text-anchor="middle" x="207.5" y="-210" font-family="Times,serif" font-size="14.00">flowChart&#45;sub</text>
</g>
<!-- flowChart_main__1 -->
<g id="flowChart_main__1" class="node"><title>flowChart_main__1</title>
<ellipse fill="lightgray" stroke="black" cx="58" cy="-456" rx="27" ry="18"/>
<ellipse fill="none" stroke="black" cx="58" cy="-456" rx="31" ry="22"/>
<text text-anchor="middle" x="58" y="-452" font-family="Helvetica,sans-Serif" font-size="10.00">1</text>
</g>
<!-- flowChart_main__2 -->
<g id="flowChart_main__2" class="node"><title>flowChart_main__2</title>
<ellipse fill="lightgray" stroke="black" cx="80" cy="-368" rx="27" ry="18"/>
<text text-anchor="middle" x="80" y="-364" font-family="Helvetica,sans-Serif" font-size="10.00">2</text>
</g>
<!-- flowChart_main__1&#45;&gt;flowChart_main__2 -->
<g id="edge1" class="edge"><title>flowChart_main__1&#45;&gt;flowChart_main__2</title>
<path fill="none" stroke="green" d="M63.3256,-434.182C66.2862,-422.608 70.002,-408.083 73.1741,-395.683"/>
<polygon fill="green" stroke="green" points="76.5946,-396.434 75.6822,-385.879 69.813,-394.699 76.5946,-396.434"/>
<text text-anchor="middle" x="74.335" y="-406" font-family="Helvetica,sans-Serif" font-size="10.00">Y</text>
</g>
<!-- flowChart_main__5 -->
<g id="flowChart_main__5" class="node"><title>flowChart_main__5</title>
<ellipse fill="lightgray" stroke="black" cx="72" cy="-86" rx="1.8" ry="1.8"/>
</g>
<!-- flowChart_main__1&#45;&gt;flowChart_main__5 -->
<g id="edge2" class="edge"><title>flowChart_main__1&#45;&gt;flowChart_main__5</title>
<path fill="none" stroke="red" d="M48.9266,-434.592C42.1302,-417.441 34,-392.097 34,-369 34,-369 34,-369 34,-173 34,-142.603 54.1071,-110.923 65.0689,-95.9106"/>
<polygon fill="red" stroke="red" points="67.9997,-97.8417 71.3404,-87.7873 62.4589,-93.5639 67.9997,-97.8417"/>
<text text-anchor="middle" x="37.6108" y="-280" font-family="Helvetica,sans-Serif" font-size="10.00">N</text>
</g>
<!-- flowChart_main__c_m -->
<g id="flowChart_main__c_m" class="node"><title>flowChart_main__c_m</title>
<polygon fill="lightgray" stroke="black" points="107,-302 79.8328,-284 107,-266 134.167,-284 107,-302"/>
<text text-anchor="middle" x="107" y="-280" font-family="Helvetica,sans-Serif" font-size="10.00">c&#45;m</text>
</g>
<!-- flowChart_main__2&#45;&gt;flowChart_main__c_m -->
<g id="edge3" class="edge"><title>flowChart_main__2&#45;&gt;flowChart_main__c_m</title>
<path fill="none" stroke="green" d="M85.5944,-350.01C89.519,-338.091 94.8198,-321.992 99.1645,-308.797"/>
<polygon fill="green" stroke="green" points="102.596,-309.566 102.399,-298.973 95.9473,-307.376 102.596,-309.566"/>
<text text-anchor="middle" x="99.335" y="-322" font-family="Helvetica,sans-Serif" font-size="10.00">Y</text>
</g>
<!-- flowChart_main__2&#45;&gt;flowChart_main__5 -->
<g id="edge4" class="edge"><title>flowChart_main__2&#45;&gt;flowChart_main__5</title>
<path fill="none" stroke="red" d="M76.6525,-349.975C74.261,-336.911 71.2536,-318.393 70,-302 64.0762,-224.537 69.1063,-130.923 71.1948,-98.618"/>
<polygon fill="red" stroke="red" points="74.7053,-98.5837 71.8975,-88.3678 67.7217,-98.1049 74.7053,-98.5837"/>
<text text-anchor="middle" x="71.6108" y="-238" font-family="Helvetica,sans-Serif" font-size="10.00">N</text>
</g>
<!-- flowChart_main__3 -->
<g id="flowChart_main__3" class="node"><title>flowChart_main__3</title>
<ellipse fill="lightgray" stroke="black" cx="107" cy="-174" rx="27" ry="18"/>
<text text-anchor="middle" x="107" y="-170" font-family="Helvetica,sans-Serif" font-size="10.00">3</text>
</g>
<!-- flowChart_main__3&#45;&gt;flowChart_main__5 -->
<g id="edge5" class="edge"><title>flowChart_main__3&#45;&gt;flowChart_main__5</title>
<path fill="none" stroke="green" d="M103.092,-156.12C100.496,-146.018 96.7009,-133.039 92,-122 88.1611,-112.985 82.5395,-103.363 78.2332,-96.4936"/>
<polygon fill="green" stroke="green" points="80.9711,-94.2851 72.5715,-87.8278 75.111,-98.1138 80.9711,-94.2851"/>
<text text-anchor="middle" x="100.335" y="-124" font-family="Helvetica,sans-Serif" font-size="10.00">Y</text>
</g>
<!-- flowChart_main__3&#45;&gt;flowChart_main__5 -->
<g id="edge6" class="edge"><title>flowChart_main__3&#45;&gt;flowChart_main__5</title>
<path fill="none" stroke="red" d="M97.8941,-156.981C94.1632,-150.046 89.9795,-141.755 86.7783,-134 81.8092,-121.962 77.5235,-107.619 74.866,-97.9703"/>
<polygon fill="red" stroke="red" points="78.2218,-96.9695 72.2923,-88.1894 71.4523,-98.7508 78.2218,-96.9695"/>
<text text-anchor="middle" x="90.6108" y="-124" font-family="Helvetica,sans-Serif" font-size="10.00">N</text>
</g>
<!-- flowChart_sub__A -->
<g id="flowChart_sub__A" class="node"><title>flowChart_sub__A</title>
<ellipse fill="lightgray" stroke="black" cx="190" cy="-174" rx="27" ry="18"/>
<ellipse fill="none" stroke="black" cx="190" cy="-174" rx="31" ry="22"/>
<text text-anchor="middle" x="190" y="-170" font-family="Helvetica,sans-Serif" font-size="10.00">A</text>
</g>
<!-- flowChart_main__c_m&#45;&gt;flowChart_sub__A -->
<g id="edge7" class="edge"><title>flowChart_main__c_m&#45;&gt;flowChart_sub__A</title>
<path fill="none" stroke="#0000ff" stroke-dasharray="5,2" d="M115.882,-271.442C128.565,-254.94 152.225,-224.152 169.41,-201.791"/>
<polygon fill="#0000ff" stroke="#0000ff" points="172.325,-203.743 175.643,-193.681 166.774,-199.477 172.325,-203.743"/>
<text text-anchor="middle" x="149.502" y="-238" font-family="Helvetica,sans-Serif" font-size="10.00">call</text>
</g>
<!-- flowChart_main__c_m&#45;&gt;flowChart_main__3 -->
<g id="edge8" class="edge"><title>flowChart_main__c_m&#45;&gt;flowChart_main__3</title>
<path fill="none" stroke="black" d="M107,-265.648C107,-248.564 107,-222.215 107,-202.319"/>
<polygon fill="black" stroke="black" points="110.5,-202.309 107,-192.309 103.5,-202.309 110.5,-202.309"/>
<text text-anchor="middle" x="116.451" y="-238" font-family="Helvetica,sans-Serif" font-size="10.00">next</text>
</g>
<!-- flowChart_sub__B -->
<g id="flowChart_sub__B" class="node"><title>flowChart_sub__B</title>
<ellipse fill="lightgray" stroke="black" cx="186" cy="-86" rx="27" ry="18"/>
<text text-anchor="middle" x="186" y="-82" font-family="Helvetica,sans-Serif" font-size="10.00">B</text>
</g>
<!-- flowChart_sub__A&#45;&gt;flowChart_sub__B -->
<g id="edge9" class="edge"><title>flowChart_sub__A&#45;&gt;flowChart_sub__B</title>
<path fill="none" stroke="green" d="M189.011,-151.742C188.485,-140.431 187.832,-126.397 187.269,-114.29"/>
<polygon fill="green" stroke="green" points="190.764,-114.089 186.803,-104.263 183.771,-114.415 190.764,-114.089"/>
<text text-anchor="middle" x="192.335" y="-124" font-family="Helvetica,sans-Serif" font-size="10.00">Y</text>
</g>
<!-- flowChart_sub__SUB_END -->
<g id="flowChart_sub__SUB_END" class="node"><title>flowChart_sub__SUB_END</title>
<ellipse fill="lightgray" stroke="black" cx="216" cy="-18" rx="1.8" ry="1.8"/>
</g>
<!-- flowChart_sub__A&#45;&gt;flowChart_sub__SUB_END -->
<g id="edge10" class="edge"><title>flowChart_sub__A&#45;&gt;flowChart_sub__SUB_END</title>
<path fill="none" stroke="red" d="M201.789,-153.584C209.212,-140.185 218.103,-121.666 222,-104 227.758,-77.8973 222.399,-46.2974 218.747,-29.9638"/>
<polygon fill="red" stroke="red" points="222.044,-28.7158 216.242,-19.8511 215.25,-30.3993 222.044,-28.7158"/>
<text text-anchor="middle" x="227.611" y="-82" font-family="Helvetica,sans-Serif" font-size="10.00">N</text>
</g>
<!-- flowChart_sub__B&#45;&gt;flowChart_sub__SUB_END -->
<g id="edge11" class="edge"><title>flowChart_sub__B&#45;&gt;flowChart_sub__SUB_END</title>
<path fill="none" stroke="green" d="M183.803,-67.9034C183.402,-58.5152 184.287,-46.989 189.33,-38 192.897,-31.6413 199.584,-26.8851 205.369,-23.7217"/>
<polygon fill="green" stroke="green" points="207.05,-26.802 214.69,-19.4623 204.14,-20.4353 207.05,-26.802"/>
<text text-anchor="middle" x="193.335" y="-40" font-family="Helvetica,sans-Serif" font-size="10.00">Y</text>
</g>
<!-- flowChart_sub__B&#45;&gt;flowChart_sub__SUB_END -->
<g id="edge12" class="edge"><title>flowChart_sub__B&#45;&gt;flowChart_sub__SUB_END</title>
<path fill="none" stroke="red" d="M193.416,-68.6854C198.942,-56.5273 206.332,-40.2688 211.129,-29.7162"/>
<polygon fill="red" stroke="red" points="214.442,-30.8853 215.394,-20.3333 208.07,-27.9886 214.442,-30.8853"/>
<text text-anchor="middle" x="211.611" y="-40" font-family="Helvetica,sans-Serif" font-size="10.00">N</text>
</g>
</g>
</svg>
