<?xml version="1.0" encoding="UTF-8" standalone="no"?>
<!DOCTYPE svg PUBLIC "-//W3C//DTD SVG 1.1//EN"
 "http://www.w3.org/Graphics/SVG/1.1/DTD/svg11.dtd">
<!-- Generated by graphviz version 2.30.1 (20130415.0333)
 -->
<!-- Title: ChartSet Pages: 1 -->
<svg width="654pt" height="302pt"
 viewBox="0.00 0.00 654.00 302.00" xmlns="http://www.w3.org/2000/svg" xmlns:xlink="http://www.w3.org/1999/xlink">
<g id="graph0" class="graph" transform="scale(1 1) rotate(0) translate(4 298)">
<title>ChartSet</title>
<polygon fill="white" stroke="white" points="-4,5 -4,-298 651,-298 651,5 -4,5"/>
<g id="clust1" class="cluster"><title>cluster_flowChart_main</title>
<polygon fill="none" stroke="black" points="8,-141 8,-286 558,-286 558,-141 8,-141"/>
<text text-anchor="middle" x="283" y="-268" font-family="Times,serif" font-size="14.00">flowChart&#45;main</text>
</g>
<g id="clust2" class="cluster"><title>cluster_flowChart_sub</title>
<polygon fill="none" stroke="black" points="400,-8 400,-133 638,-133 638,-8 400,-8"/>
<text text-anchor="middle" x="519" y="-115" font-family="Times,serif" font-size="14.00">flowChart&#45;sub</text>
</g>
<!-- flowChart_main__1 -->
<g id="flowChart_main__1" class="node"><title>flowChart_main__1</title>
<ellipse fill="lightgray" stroke="black" cx="47" cy="-224" rx="27" ry="18"/>
<ellipse fill="none" stroke="black" cx="47" cy="-224" rx="31" ry="22"/>
<text text-anchor="middle" x="47" y="-220" font-family="Helvetica,sans-Serif" font-size="10.00">1</text>
</g>
<!-- flowChart_main__2 -->
<g id="flowChart_main__2" class="node"><title>flowChart_main__2</title>
<ellipse fill="lightgray" stroke="black" cx="149" cy="-204" rx="27" ry="18"/>
<text text-anchor="middle" x="149" y="-200" font-family="Helvetica,sans-Serif" font-size="10.00">2</text>
</g>
<!-- flowChart_main__1&#45;&gt;flowChart_main__2 -->
<g id="edge1" class="edge"><title>flowChart_main__1&#45;&gt;flowChart_main__2</title>
<path fill="none" stroke="green" d="M76.9241,-218.215C88.167,-215.967 101.15,-213.37 112.919,-211.016"/>
<polygon fill="green" stroke="green" points="113.755,-214.418 122.875,-209.025 112.382,-207.554 113.755,-214.418"/>
<text text-anchor="middle" x="100" y="-216" font-family="Helvetica,sans-Serif" font-size="10.00">Y</text>
</g>
<!-- flowChart_main__5 -->
<g id="flowChart_main__5" class="node"><title>flowChart_main__5</title>
<ellipse fill="#333333" stroke="black" cx="541" cy="-211" rx="9" ry="9"/>
</g>
<!-- flowChart_main__1&#45;&gt;flowChart_main__5 -->
<g id="edge2" class="edge"><title>flowChart_main__1&#45;&gt;flowChart_main__5</title>
<path fill="none" stroke="red" d="M76.2317,-231.407C96.1439,-235.988 123.522,-241 148,-241 148,-241 148,-241 440,-241 470.434,-241 503.964,-228.094 523.437,-219.213"/>
<polygon fill="red" stroke="red" points="525.177,-222.26 532.7,-214.8 522.166,-215.941 525.177,-222.26"/>
<text text-anchor="middle" x="286" y="-243" font-family="Helvetica,sans-Serif" font-size="10.00">N</text>
</g>
<!-- flowChart_main__c_m -->
<g id="flowChart_main__c_m" class="node"><title>flowChart_main__c_m</title>
<polygon fill="lightgray" stroke="black" points="286,-185 219.863,-167 286,-149 352.137,-167 286,-185"/>
<text text-anchor="middle" x="286" y="-163" font-family="Helvetica,sans-Serif" font-size="10.00">c&#45;m: Calling A</text>
</g>
<!-- flowChart_main__2&#45;&gt;flowChart_main__c_m -->
<g id="edge3" class="edge"><title>flowChart_main__2&#45;&gt;flowChart_main__c_m</title>
<path fill="none" stroke="green" d="M172.155,-194.683C179.074,-191.979 186.786,-189.173 194,-187 207.585,-182.909 222.544,-179.273 236.34,-176.261"/>
<polygon fill="green" stroke="green" points="237.088,-179.681 246.143,-174.181 235.635,-172.833 237.088,-179.681"/>
<text text-anchor="middle" x="198" y="-189" font-family="Helvetica,sans-Serif" font-size="10.00">Y</text>
</g>
<!-- flowChart_main__2&#45;&gt;flowChart_main__5 -->
<g id="edge4" class="edge"><title>flowChart_main__2&#45;&gt;flowChart_main__5</title>
<path fill="none" stroke="red" d="M176.195,-204.47C250,-205.795 458.392,-209.535 521.599,-210.67"/>
<polygon fill="red" stroke="red" points="521.874,-214.175 531.935,-210.855 522,-207.176 521.874,-214.175"/>
<text text-anchor="middle" x="380" y="-211" font-family="Helvetica,sans-Serif" font-size="10.00">N</text>
</g>
<!-- flowChart_main__3 -->
<g id="flowChart_main__3" class="node"><title>flowChart_main__3</title>
<ellipse fill="lightgray" stroke="black" cx="439" cy="-167" rx="27" ry="18"/>
<text text-anchor="middle" x="439" y="-163" font-family="Helvetica,sans-Serif" font-size="10.00">3</text>
</g>
<!-- flowChart_main__3&#45;&gt;flowChart_main__5 -->
<g id="edge5" class="edge"><title>flowChart_main__3&#45;&gt;flowChart_main__5</title>
<path fill="none" stroke="green" d="M465.633,-163.524C475.466,-163.187 486.58,-164.063 496,-168 509.581,-173.676 521.291,-185.702 529.209,-195.597"/>
<polygon fill="green" stroke="green" points="526.574,-197.918 535.359,-203.841 532.185,-193.733 526.574,-197.918"/>
<text text-anchor="middle" x="492" y="-170" font-family="Helvetica,sans-Serif" font-size="10.00">Y</text>
</g>
<!-- flowChart_main__3&#45;&gt;flowChart_main__5 -->
<g id="edge6" class="edge"><title>flowChart_main__3&#45;&gt;flowChart_main__5</title>
<path fill="none" stroke="red" d="M462.193,-176.765C480.507,-184.823 506.119,-196.093 522.879,-203.467"/>
<polygon fill="red" stroke="red" points="521.885,-206.853 532.448,-207.677 524.704,-200.446 521.885,-206.853"/>
<text text-anchor="middle" x="492" y="-194" font-family="Helvetica,sans-Serif" font-size="10.00">N</text>
</g>
<!-- flowChart_sub__A -->
<g id="flowChart_sub__A" class="node"><title>flowChart_sub__A</title>
<ellipse fill="lightgray" stroke="black" cx="439" cy="-78" rx="27" ry="18"/>
<ellipse fill="none" stroke="black" cx="439" cy="-78" rx="31" ry="22"/>
<text text-anchor="middle" x="439" y="-74" font-family="Helvetica,sans-Serif" font-size="10.00">A</text>
</g>
<!-- flowChart_main__c_m&#45;&gt;flowChart_sub__A -->
<g id="edge7" class="edge"><title>flowChart_main__c_m&#45;&gt;flowChart_sub__A</title>
<path fill="none" stroke="#0000ff" stroke-dasharray="5,2" d="M307.679,-154.812C333.006,-139.884 376.19,-114.431 405.86,-96.9435"/>
<polygon fill="#0000ff" stroke="#0000ff" points="407.761,-99.8856 414.599,-91.7926 404.207,-93.8551 407.761,-99.8856"/>
<text text-anchor="middle" x="380" y="-120" font-family="Helvetica,sans-Serif" font-size="10.00">call</text>
</g>
<!-- flowChart_main__c_m&#45;&gt;flowChart_main__3 -->
<g id="edge8" class="edge"><title>flowChart_main__c_m&#45;&gt;flowChart_main__3</title>
<path fill="none" stroke="black" d="M352.353,-167C369.285,-167 386.911,-167 401.74,-167"/>
<polygon fill="black" stroke="black" points="401.994,-170.5 411.994,-167 401.994,-163.5 401.994,-170.5"/>
<text text-anchor="middle" x="380" y="-169" font-family="Helvetica,sans-Serif" font-size="10.00">next</text>
</g>
<!-- flowChart_sub__B -->
<g id="flowChart_sub__B" class="node"><title>flowChart_sub__B</title>
<ellipse fill="lightgray" stroke="black" cx="541" cy="-34" rx="27" ry="18"/>
<text text-anchor="middle" x="541" y="-30" font-family="Helvetica,sans-Serif" font-size="10.00">B</text>
</g>
<!-- flowChart_sub__A&#45;&gt;flowChart_sub__B -->
<g id="edge9" class="edge"><title>flowChart_sub__A&#45;&gt;flowChart_sub__B</title>
<path fill="none" stroke="green" d="M465.752,-66.6689C478.918,-60.8761 495.043,-53.7813 508.897,-47.6852"/>
<polygon fill="green" stroke="green" points="510.319,-50.8836 518.062,-43.6526 507.5,-44.4764 510.319,-50.8836"/>
<text text-anchor="middle" x="492" y="-58" font-family="Helvetica,sans-Serif" font-size="10.00">Y</text>
</g>
<!-- flowChart_sub__SUB_END -->
<g id="flowChart_sub__SUB_END" class="node"><title>flowChart_sub__SUB_END</title>
<ellipse fill="#333333" stroke="black" cx="621" cy="-69" rx="9" ry="9"/>
</g>
<!-- flowChart_sub__A&#45;&gt;flowChart_sub__SUB_END -->
<g id="edge10" class="edge"><title>flowChart_sub__A&#45;&gt;flowChart_sub__SUB_END</title>
<path fill="none" stroke="red" d="M470.166,-78.0898C501.262,-77.9318 551.117,-76.9804 594,-73 596.532,-72.765 599.193,-72.4429 601.807,-72.0828"/>
<polygon fill="red" stroke="red" points="602.495,-75.5178 611.834,-70.5141 601.413,-68.6019 602.495,-75.5178"/>
<text text-anchor="middle" x="541" y="-80" font-family="Helvetica,sans-Serif" font-size="10.00">N</text>
</g>
<!-- flowChart_sub__B&#45;&gt;flowChart_sub__SUB_END -->
<g id="edge11" class="edge"><title>flowChart_sub__B&#45;&gt;flowChart_sub__SUB_END</title>
<path fill="none" stroke="green" d="M567.421,-30.1186C576.247,-29.8774 585.944,-30.9221 594,-35 601.305,-38.6979 607.139,-45.5114 611.414,-52.0733"/>
<polygon fill="green" stroke="green" points="608.569,-54.1505 616.553,-61.1152 614.654,-50.6918 608.569,-54.1505"/>
<text text-anchor="middle" x="590" y="-37" font-family="Helvetica,sans-Serif" font-size="10.00">Y</text>
</g>
<!-- flowChart_sub__B&#45;&gt;flowChart_sub__SUB_END -->
<g id="edge12" class="edge"><title>flowChart_sub__B&#45;&gt;flowChart_sub__SUB_END</title>
<path fill="none" stroke="red" d="M563.727,-43.7495C576.152,-49.3245 591.507,-56.2147 603.037,-61.3885"/>
<polygon fill="red" stroke="red" points="601.8,-64.6696 612.357,-65.5703 604.666,-58.2831 601.8,-64.6696"/>
<text text-anchor="middle" x="590" y="-59" font-family="Helvetica,sans-Serif" font-size="10.00">N</text>
</g>
</g>
</svg>
