<?xml version="1.0" encoding="UTF-8" standalone="no"?>
<!DOCTYPE svg PUBLIC "-//W3C//DTD SVG 1.1//EN"
 "http://www.w3.org/Graphics/SVG/1.1/DTD/svg11.dtd">
<!-- Generated by graphviz version 2.30.1 (20130415.0333)
 -->
<!-- Title: consillienceWorkflow Pages: 1 -->
<svg width="732pt" height="1055pt"
 viewBox="0.00 0.00 732.28 1055.00" xmlns="http://www.w3.org/2000/svg" xmlns:xlink="http://www.w3.org/1999/xlink">
<g id="graph0" class="graph" transform="scale(1 1) rotate(0) translate(4 1051)">
<title>consillienceWorkflow</title>
<polygon fill="white" stroke="white" points="-4,5 -4,-1051 729.283,-1051 729.283,5 -4,5"/>
<g id="clust2" class="cluster"><title>cluster2</title>
<polygon fill="none" stroke="black" points="412.283,-300 412.283,-588 616.283,-588 616.283,-300 412.283,-300"/>
<text text-anchor="middle" x="514.283" y="-570" font-family="Times,serif" font-size="14.00">RCE</text>
</g>
<g id="clust3" class="cluster"><title>cluster2a</title>
<polygon fill="none" stroke="black" points="420.283,-374 420.283,-556 608.283,-556 608.283,-374 420.283,-374"/>
<text text-anchor="middle" x="514.283" y="-538" font-family="Times,serif" font-size="14.00">for each method</text>
</g>
<g id="clust4" class="cluster"><title>cluster0</title>
<polygon fill="none" stroke="black" points="539.283,-963 539.283,-1039 716.283,-1039 716.283,-963 539.283,-963"/>
<text text-anchor="middle" x="627.783" y="-1021" font-family="Times,serif" font-size="14.00">Input</text>
</g>
<g id="clust5" class="cluster"><title>cluster1</title>
<polygon fill="none" stroke="black" points="30.2833,-136 30.2833,-721 334.283,-721 334.283,-136 30.2833,-136"/>
<text text-anchor="start" x="166.783" y="-704" font-family="Times,serif" font-size="14.00">&#39;LCE&#39;</text>
<text text-anchor="start" x="116.283" y="-690" font-family="Times,serif" font-size="14.00">(for each method point)</text>
</g>
<!-- LuceneIdx -->
<g id="LuceneIdx" class="node"><title>LuceneIdx</title>
<polygon fill="#ffeeee" stroke="black" points="558.676,-859 555.676,-863 534.676,-863 531.676,-859 483.891,-859 483.891,-823 558.676,-823 558.676,-859"/>
<text text-anchor="middle" x="521.283" y="-835.4" font-family="Times,serif" font-size="14.00">LuceneIdx</text>
</g>
<!-- Stemming -->
<g id="Stemming" class="node"><title>Stemming</title>
<polygon fill="#eeffee" stroke="black" points="519.285,-749.049 522.597,-749.148 525.874,-749.295 529.104,-749.491 532.273,-749.735 535.368,-750.027 538.378,-750.364 541.291,-750.748 544.095,-751.176 546.78,-751.647 549.337,-752.161 551.756,-752.715 554.03,-753.308 556.152,-753.939 558.114,-754.605 559.912,-755.306 561.541,-756.039 562.998,-756.801 564.28,-757.592 565.386,-758.408 566.314,-759.248 567.066,-760.109 567.641,-760.989 568.043,-761.886 568.273,-762.797 568.335,-763.719 568.232,-764.65 567.971,-765.587 567.555,-766.529 566.992,-767.471 566.286,-768.413 565.444,-769.35 564.473,-770.281 563.381,-771.203 562.175,-772.114 560.861,-773.011 559.447,-773.891 557.941,-774.752 556.35,-775.592 554.68,-776.408 552.94,-777.199 551.134,-777.961 549.27,-778.694 547.354,-779.395 545.392,-780.061 543.389,-780.692 541.349,-781.285 539.278,-781.839 537.18,-782.353 535.059,-782.824 532.917,-783.252 530.759,-783.636 528.588,-783.973 526.404,-784.265 524.212,-784.509 522.013,-784.705 519.808,-784.852 517.6,-784.951 515.389,-785 513.178,-785 510.967,-784.951 508.759,-784.852 506.554,-784.705 504.354,-784.509 502.162,-784.265 499.979,-783.973 497.807,-783.636 495.649,-783.252 493.508,-782.824 491.386,-782.353 489.288,-781.839 487.217,-781.285 485.178,-780.692 483.174,-780.061 481.212,-779.395 479.296,-778.694 477.432,-777.961 475.627,-777.199 473.886,-776.408 472.217,-775.592 470.625,-774.752 469.119,-773.891 467.706,-773.011 466.392,-772.114 465.185,-771.203 464.093,-770.281 463.123,-769.35 462.281,-768.413 461.575,-767.471 461.011,-766.529 460.596,-765.587 460.334,-764.65 460.232,-763.719 460.294,-762.797 460.524,-761.886 460.925,-760.989 461.501,-760.109 462.252,-759.248 463.181,-758.408 464.286,-757.592 465.568,-756.801 467.025,-756.039 468.655,-755.306 470.453,-754.605 472.415,-753.939 474.536,-753.308 476.81,-752.715 479.23,-752.161 481.786,-751.647 484.472,-751.176 487.276,-750.748 490.189,-750.364 493.198,-750.027 496.294,-749.735 499.463,-749.491 502.693,-749.295 505.97,-749.148 509.282,-749.049 512.614,-749 515.953,-749 519.285,-749.049"/>
<text text-anchor="middle" x="514.283" y="-761.4" font-family="Times,serif" font-size="14.00">Stemming</text>
</g>
<!-- LuceneIdx&#45;&gt;Stemming -->
<g id="edge3" class="edge"><title>LuceneIdx&#45;&gt;Stemming</title>
<path fill="none" stroke="black" d="M519.624,-822.937C518.825,-814.719 517.847,-804.66 516.948,-795.406"/>
<polygon fill="black" stroke="black" points="520.43,-795.055 515.979,-785.441 513.463,-795.732 520.43,-795.055"/>
</g>
<!-- StemWordFiles -->
<g id="StemWordFiles" class="node"><title>StemWordFiles</title>
<polygon fill="#ffeeee" stroke="black" points="452.283,-683.5 449.283,-687.5 428.283,-687.5 425.283,-683.5 342.283,-683.5 342.283,-632.5 452.283,-632.5 452.283,-683.5"/>
<text text-anchor="start" x="350.783" y="-666.5" font-family="Times,serif" font-size="14.00">Stem Word files:</text>
<text text-anchor="start" x="372.783" y="-652.5" font-family="Times,serif" font-size="14.00">terms.txt</text>
<text text-anchor="start" x="358.783" y="-638.5" font-family="Times,serif" font-size="14.00">StemData.csv</text>
</g>
<!-- Ingest -->
<g id="Ingest" class="node"><title>Ingest</title>
<polygon fill="#eeffee" stroke="black" points="482.219,-143.727 486.149,-143.871 490.038,-144.087 493.87,-144.374 497.631,-144.731 501.304,-145.158 504.876,-145.652 508.333,-146.213 511.66,-146.84 514.847,-147.53 517.881,-148.281 520.752,-149.092 523.451,-149.96 525.968,-150.883 528.297,-151.859 530.431,-152.884 532.364,-153.957 534.093,-155.073 535.614,-156.23 536.927,-157.425 538.028,-158.654 538.92,-159.915 539.603,-161.203 540.079,-162.515 540.352,-163.848 540.426,-165.197 540.304,-166.56 539.994,-167.932 539.501,-169.31 538.832,-170.69 537.994,-172.068 536.995,-173.44 535.844,-174.803 534.548,-176.152 533.116,-177.485 531.557,-178.797 529.879,-180.085 528.092,-181.346 526.204,-182.575 524.222,-183.77 522.156,-184.927 520.014,-186.043 517.802,-187.116 515.529,-188.141 513.2,-189.117 510.822,-190.04 508.402,-190.908 505.945,-191.719 503.455,-192.47 500.937,-193.16 498.396,-193.787 495.835,-194.348 493.258,-194.842 490.667,-195.269 488.066,-195.626 485.456,-195.913 482.839,-196.129 480.219,-196.273 477.595,-196.345 474.971,-196.345 472.348,-196.273 469.727,-196.129 467.111,-195.913 464.501,-195.626 461.899,-195.269 459.308,-194.842 456.731,-194.348 454.17,-193.787 451.629,-193.16 449.112,-192.47 446.622,-191.719 444.164,-190.908 441.744,-190.04 439.367,-189.117 437.038,-188.141 434.764,-187.116 432.553,-186.043 430.41,-184.927 428.344,-183.77 426.363,-182.575 424.475,-181.346 422.687,-180.085 421.01,-178.797 419.451,-177.485 418.019,-176.152 416.723,-174.803 415.571,-173.44 414.572,-172.068 413.735,-170.69 413.065,-169.31 412.572,-167.932 412.262,-166.56 412.141,-165.197 412.214,-163.848 412.487,-162.515 412.963,-161.203 413.646,-159.915 414.538,-158.654 415.64,-157.425 416.952,-156.23 418.474,-155.073 420.203,-153.957 422.136,-152.884 424.27,-151.859 426.598,-150.883 429.116,-149.96 431.814,-149.092 434.685,-148.281 437.72,-147.53 440.906,-146.84 444.234,-146.213 447.69,-145.652 451.262,-145.158 454.936,-144.731 458.696,-144.374 462.529,-144.087 466.418,-143.871 470.348,-143.727 474.302,-143.655 478.264,-143.655 482.219,-143.727"/>
<text text-anchor="start" x="441.783" y="-171.5" font-family="Times,serif" font-size="14.00">DB Loading</text>
<text text-anchor="start" x="465.283" y="-157.5" font-family="Times,serif" font-style="italic" font-size="14.00">JEE</text>
</g>
<!-- StemWordFiles&#45;&gt;Ingest -->
<g id="edge12" class="edge"><title>StemWordFiles&#45;&gt;Ingest</title>
<path fill="none" stroke="black" d="M386.725,-632.338C374.577,-601.677 356.283,-547.46 356.283,-499 356.283,-499 356.283,-499 356.283,-251 356.283,-218.691 386.77,-198.628 417.011,-186.674"/>
<polygon fill="black" stroke="black" points="418.609,-189.815 426.782,-183.072 416.188,-183.247 418.609,-189.815"/>
</g>
<!-- TDM -->
<g id="TDM" class="node"><title>TDM</title>
<polygon fill="#ffeeee" stroke="black" points="557.533,-676.5 554.533,-680.5 533.533,-680.5 530.533,-676.5 471.033,-676.5 471.033,-639.5 557.533,-639.5 557.533,-676.5"/>
<text text-anchor="start" x="498.783" y="-659.5" font-family="Times,serif" font-size="14.00">TDM</text>
<text text-anchor="start" x="479.283" y="-645.5" font-family="Times,serif" font-size="14.00">&#39;features file&#39;</text>
</g>
<!-- Clusterings -->
<g id="Clusterings" class="node"><title>Clusterings</title>
<polygon fill="#eeffee" stroke="black" points="519.692,-480.049 523.272,-480.148 526.816,-480.295 530.308,-480.491 533.735,-480.735 537.082,-481.027 540.336,-481.364 543.486,-481.748 546.518,-482.176 549.421,-482.647 552.186,-483.161 554.802,-483.715 557.261,-484.308 559.554,-484.939 561.676,-485.605 563.62,-486.306 565.382,-487.039 566.958,-487.801 568.344,-488.592 569.539,-489.408 570.543,-490.248 571.356,-491.109 571.978,-491.989 572.412,-492.886 572.661,-493.797 572.728,-494.719 572.617,-495.65 572.335,-496.587 571.885,-497.529 571.275,-498.471 570.512,-499.413 569.602,-500.35 568.553,-501.281 567.372,-502.203 566.067,-503.114 564.647,-504.011 563.118,-504.891 561.49,-505.752 559.769,-506.592 557.964,-507.408 556.081,-508.199 554.129,-508.961 552.114,-509.694 550.042,-510.395 547.921,-511.061 545.754,-511.692 543.549,-512.285 541.31,-512.839 539.041,-513.353 536.747,-513.824 534.432,-514.252 532.099,-514.636 529.75,-514.973 527.39,-515.265 525.019,-515.509 522.641,-515.705 520.257,-515.852 517.869,-515.951 515.479,-516 513.088,-516 510.697,-515.951 508.31,-515.852 505.926,-515.705 503.547,-515.509 501.177,-515.265 498.816,-514.973 496.468,-514.636 494.135,-514.252 491.819,-513.824 489.525,-513.353 487.257,-512.839 485.018,-512.285 482.812,-511.692 480.646,-511.061 478.524,-510.395 476.453,-509.694 474.437,-508.961 472.485,-508.199 470.603,-507.408 468.798,-506.592 467.077,-505.752 465.448,-504.891 463.92,-504.011 462.499,-503.114 461.195,-502.203 460.014,-501.281 458.965,-500.35 458.054,-499.413 457.291,-498.471 456.681,-497.529 456.232,-496.587 455.949,-495.65 455.839,-494.719 455.906,-493.797 456.154,-492.886 456.588,-491.989 457.211,-491.109 458.023,-490.248 459.027,-489.408 460.223,-488.592 461.609,-487.801 463.184,-487.039 464.946,-486.306 466.89,-485.605 469.012,-484.939 471.306,-484.308 473.765,-483.715 476.381,-483.161 479.145,-482.647 482.049,-482.176 485.081,-481.748 488.23,-481.364 491.485,-481.027 494.832,-480.735 498.258,-480.491 501.751,-480.295 505.294,-480.148 508.875,-480.049 512.478,-480 516.088,-480 519.692,-480.049"/>
<polygon fill="none" stroke="black" points="519.773,-476.05 523.41,-476.15 527.01,-476.3 530.561,-476.499 534.048,-476.748 537.46,-477.044 540.782,-477.389 544.004,-477.782 547.115,-478.221 550.103,-478.706 552.961,-479.237 555.681,-479.813 558.255,-480.434 560.679,-481.1 562.948,-481.813 565.06,-482.574 567.015,-483.387 568.813,-484.258 570.456,-485.195 571.946,-486.212 573.28,-487.328 574.447,-488.565 575.423,-489.945 576.162,-491.472 576.611,-493.117 576.734,-494.811 576.537,-496.471 576.065,-498.038 575.372,-499.488 574.506,-500.828 573.495,-502.075 572.357,-503.247 571.103,-504.36 569.738,-505.425 568.27,-506.45 566.703,-507.439 565.042,-508.395 563.294,-509.32 561.462,-510.214 559.555,-511.077 557.576,-511.908 555.533,-512.706 553.431,-513.47 551.276,-514.199 549.073,-514.891 546.827,-515.545 544.544,-516.159 542.227,-516.732 539.881,-517.263 537.509,-517.751 535.116,-518.193 532.704,-518.589 530.277,-518.939 527.837,-519.24 525.386,-519.492 522.927,-519.695 520.462,-519.847 517.992,-519.949 515.52,-520 513.047,-520 510.574,-519.949 508.105,-519.847 505.639,-519.695 503.18,-519.492 500.73,-519.24 498.289,-518.939 495.862,-518.589 493.45,-518.193 491.057,-517.751 488.686,-517.263 486.34,-516.732 484.023,-516.159 481.739,-515.545 479.493,-514.891 477.29,-514.199 475.135,-513.47 473.033,-512.706 470.99,-511.908 469.012,-511.077 467.104,-510.214 465.273,-509.32 463.524,-508.395 461.863,-507.439 460.296,-506.45 458.828,-505.425 457.464,-504.36 456.21,-503.247 455.072,-502.075 454.061,-500.828 453.194,-499.488 452.502,-498.038 452.029,-496.471 451.832,-494.811 451.955,-493.117 452.404,-491.472 453.144,-489.945 454.119,-488.565 455.287,-487.328 456.621,-486.212 458.11,-485.195 459.754,-484.258 461.552,-483.387 463.507,-482.574 465.619,-481.813 467.888,-481.1 470.311,-480.434 472.886,-479.813 475.605,-479.237 478.463,-478.706 481.452,-478.221 484.562,-477.782 487.784,-477.389 491.107,-477.044 494.518,-476.748 498.006,-476.499 501.556,-476.3 505.157,-476.15 508.793,-476.05 512.451,-476 516.116,-476 519.773,-476.05"/>
<polygon fill="none" stroke="black" points="519.855,-472.051 523.547,-472.152 527.204,-472.305 530.814,-472.507 534.362,-472.76 537.838,-473.062 541.228,-473.414 544.523,-473.815 547.711,-474.265 550.785,-474.765 553.737,-475.313 556.56,-475.911 559.25,-476.56 561.803,-477.262 564.219,-478.021 566.499,-478.842 568.647,-479.736 570.668,-480.714 572.568,-481.798 574.352,-483.016 576.016,-484.408 577.539,-486.022 578.868,-487.901 579.912,-490.059 580.562,-492.437 580.74,-494.903 580.457,-497.293 579.795,-499.489 578.859,-501.448 577.736,-503.185 576.478,-504.737 575.112,-506.144 573.652,-507.439 572.105,-508.647 570.473,-509.786 568.76,-510.867 566.967,-511.9 565.098,-512.888 563.156,-513.836 561.146,-514.745 559.071,-515.617 556.937,-516.45 554.749,-517.246 552.51,-518.003 550.226,-518.72 547.901,-519.397 545.539,-520.033 543.144,-520.625 540.72,-521.174 538.271,-521.677 535.8,-522.134 533.31,-522.543 530.804,-522.904 528.284,-523.215 525.753,-523.475 523.213,-523.684 520.667,-523.842 518.115,-523.947 515.561,-524 513.006,-524 510.451,-523.947 507.9,-523.842 505.353,-523.684 502.813,-523.475 500.282,-523.215 497.762,-522.904 495.256,-522.543 492.766,-522.134 490.295,-521.677 487.846,-521.174 485.423,-520.625 483.028,-520.033 480.666,-519.397 478.341,-518.72 476.056,-518.003 473.818,-517.246 471.629,-516.45 469.495,-515.617 467.421,-514.745 465.411,-513.836 463.469,-512.888 461.6,-511.9 459.807,-510.867 458.093,-509.786 456.461,-508.647 454.914,-507.439 453.455,-506.144 452.089,-504.737 450.831,-503.185 449.707,-501.448 448.772,-499.489 448.11,-497.293 447.826,-494.903 448.005,-492.437 448.654,-490.059 449.699,-487.901 451.028,-486.022 452.551,-484.408 454.215,-483.016 455.998,-481.798 457.898,-480.714 459.919,-479.736 462.067,-478.842 464.347,-478.021 466.764,-477.262 469.317,-476.56 472.007,-475.911 474.83,-475.313 477.781,-474.765 480.855,-474.265 484.044,-473.815 487.339,-473.414 490.729,-473.062 494.204,-472.76 497.753,-472.507 501.362,-472.305 505.019,-472.152 508.711,-472.051 512.424,-472 516.143,-472 519.855,-472.051"/>
<text text-anchor="middle" x="514.283" y="-492.4" font-family="Times,serif" font-size="14.00">Clusterings</text>
</g>
<!-- TDM&#45;&gt;Clusterings -->
<g id="edge6" class="edge"><title>TDM&#45;&gt;Clusterings</title>
<path fill="none" stroke="black" d="M514.283,-639.488C514.283,-614.185 514.283,-566.86 514.283,-534.175"/>
<polygon fill="black" stroke="black" points="517.783,-534.124 514.283,-524.124 510.783,-534.124 517.783,-534.124"/>
</g>
<!-- TDM&#45;&gt;Ingest -->
<g id="edge13" class="edge"><title>TDM&#45;&gt;Ingest</title>
<path fill="none" stroke="black" d="M477.045,-639.263C456.202,-627.504 431.436,-610.156 416.283,-588 393.282,-554.367 394.283,-539.746 394.283,-499 394.283,-499 394.283,-499 394.283,-251 394.283,-227.438 411.844,-208.551 430.712,-195.058"/>
<polygon fill="black" stroke="black" points="432.762,-197.898 439.122,-189.425 428.866,-192.082 432.762,-197.898"/>
</g>
<!-- ClusterMemberships_files -->
<g id="ClusterMemberships_files" class="node"><title>ClusterMemberships_files</title>
<polygon fill="#ffeeee" stroke="black" points="591.805,-426 588.805,-430 567.805,-430 564.805,-426 436.761,-426 436.761,-390 591.805,-390 591.805,-426"/>
<polygon fill="none" stroke="black" points="595.781,-430 592.781,-434 571.781,-434 568.781,-430 432.785,-430 432.785,-386 595.781,-386 595.781,-430"/>
<polygon fill="none" stroke="black" points="599.758,-434 596.758,-438 575.758,-438 572.758,-434 428.809,-434 428.809,-382 599.758,-382 599.758,-434"/>
<text text-anchor="middle" x="514.283" y="-402.4" font-family="Times,serif" font-size="14.00">Cluster membership data</text>
</g>
<!-- Projection -->
<g id="Projection" class="node"><title>Projection</title>
<polygon fill="#eeffee" stroke="black" points="481.284,-308.049 484.594,-308.148 487.871,-308.295 491.099,-308.491 494.267,-308.735 497.362,-309.027 500.371,-309.364 503.283,-309.748 506.086,-310.176 508.771,-310.647 511.327,-311.161 513.746,-311.715 516.019,-312.308 518.14,-312.939 520.102,-313.605 521.899,-314.306 523.528,-315.039 524.985,-315.801 526.266,-316.592 527.372,-317.408 528.3,-318.248 529.051,-319.109 529.627,-319.989 530.028,-320.886 530.258,-321.797 530.32,-322.719 530.217,-323.65 529.956,-324.587 529.541,-325.529 528.977,-326.471 528.271,-327.413 527.43,-328.35 526.459,-329.281 525.368,-330.203 524.161,-331.114 522.848,-332.011 521.435,-332.891 519.929,-333.752 518.338,-334.592 516.669,-335.408 514.929,-336.199 513.124,-336.961 511.261,-337.694 509.345,-338.395 507.383,-339.061 505.381,-339.692 503.342,-340.285 501.271,-340.839 499.174,-341.353 497.053,-341.824 494.912,-342.252 492.755,-342.636 490.584,-342.973 488.401,-343.265 486.209,-343.509 484.011,-343.705 481.806,-343.852 479.599,-343.951 477.389,-344 475.178,-344 472.968,-343.951 470.76,-343.852 468.556,-343.705 466.357,-343.509 464.165,-343.265 461.983,-342.973 459.812,-342.636 457.654,-342.252 455.514,-341.824 453.393,-341.353 451.295,-340.839 449.225,-340.285 447.186,-339.692 445.183,-339.061 443.221,-338.395 441.306,-337.694 439.443,-336.961 437.638,-336.199 435.897,-335.408 434.228,-334.592 432.637,-333.752 431.132,-332.891 429.719,-332.011 428.405,-331.114 427.199,-330.203 426.107,-329.281 425.137,-328.35 424.295,-327.413 423.59,-326.471 423.026,-325.529 422.61,-324.587 422.349,-323.65 422.247,-322.719 422.309,-321.797 422.539,-320.886 422.94,-319.989 423.515,-319.109 424.267,-318.248 425.195,-317.408 426.3,-316.592 427.582,-315.801 429.038,-315.039 430.667,-314.306 432.465,-313.605 434.427,-312.939 436.547,-312.308 438.821,-311.715 441.239,-311.161 443.796,-310.647 446.48,-310.176 449.284,-309.748 452.195,-309.364 455.204,-309.027 458.299,-308.735 461.467,-308.491 464.696,-308.295 467.972,-308.148 471.283,-308.049 474.614,-308 477.952,-308 481.284,-308.049"/>
<text text-anchor="middle" x="476.283" y="-320.4" font-family="Times,serif" font-size="14.00">Projection</text>
</g>
<!-- ClusterMemberships_files&#45;&gt;Projection -->
<g id="edge8" class="edge"><title>ClusterMemberships_files&#45;&gt;Projection</title>
<path fill="none" stroke="black" d="M502.26,-381.688C497.935,-372.582 493.05,-362.298 488.693,-353.125"/>
<polygon fill="black" stroke="black" points="491.841,-351.595 484.389,-344.064 485.518,-354.598 491.841,-351.595"/>
</g>
<!-- ClusterMemberships_files&#45;&gt;Ingest -->
<g id="edge11" class="edge"><title>ClusterMemberships_files&#45;&gt;Ingest</title>
<path fill="none" stroke="black" d="M535.453,-381.981C539.085,-376.389 542.318,-370.252 544.283,-364 561.684,-308.647 557.691,-286.165 532.283,-234 526.418,-221.958 517.588,-210.473 508.663,-200.687"/>
<polygon fill="black" stroke="black" points="510.976,-198.041 501.54,-193.224 505.913,-202.874 510.976,-198.041"/>
</g>
<!-- MethodPoints -->
<g id="MethodPoints" class="node"><title>MethodPoints</title>
<polygon fill="#ffeeee" stroke="black" points="523.209,-270 520.209,-274 499.209,-274 496.209,-270 429.358,-270 429.358,-234 523.209,-234 523.209,-270"/>
<text text-anchor="middle" x="476.283" y="-246.4" font-family="Times,serif" font-size="14.00">MethodPoints</text>
</g>
<!-- MethodPoints&#45;&gt;Ingest -->
<g id="edge10" class="edge"><title>MethodPoints&#45;&gt;Ingest</title>
<path fill="none" stroke="black" d="M476.283,-233.641C476.283,-225.609 476.283,-215.761 476.283,-206.273"/>
<polygon fill="black" stroke="black" points="479.783,-206.222 476.283,-196.222 472.783,-206.222 479.783,-206.222"/>
</g>
<!-- txtFiles -->
<g id="txtFiles" class="node"><title>txtFiles</title>
<polygon fill="#ffeeee" stroke="black" points="618.836,-1007 615.836,-1011 594.836,-1011 591.836,-1007 547.73,-1007 547.73,-971 618.836,-971 618.836,-1007"/>
<text text-anchor="middle" x="583.283" y="-983.4" font-family="Times,serif" font-size="14.00">Text Files</text>
</g>
<!-- IndexFiles -->
<g id="IndexFiles" class="node"><title>IndexFiles</title>
<polygon fill="#eeffee" stroke="black" points="538.396,-897.049 541.781,-897.148 545.132,-897.295 548.433,-897.491 551.673,-897.735 554.837,-898.027 557.914,-898.364 560.891,-898.748 563.758,-899.176 566.503,-899.647 569.117,-900.161 571.59,-900.715 573.915,-901.308 576.083,-901.939 578.089,-902.605 579.927,-903.306 581.593,-904.039 583.082,-904.801 584.393,-905.592 585.523,-906.408 586.472,-907.248 587.24,-908.109 587.829,-908.989 588.239,-909.886 588.474,-910.797 588.537,-911.719 588.433,-912.65 588.165,-913.587 587.741,-914.529 587.164,-915.471 586.442,-916.413 585.582,-917.35 584.59,-918.281 583.474,-919.203 582.24,-920.114 580.897,-921.011 579.452,-921.891 577.913,-922.752 576.286,-923.592 574.579,-924.408 572.8,-925.199 570.954,-925.961 569.049,-926.694 567.09,-927.395 565.084,-928.061 563.036,-928.692 560.951,-929.285 558.834,-929.839 556.69,-930.353 554.521,-930.824 552.332,-931.252 550.126,-931.636 547.906,-931.973 545.674,-932.265 543.433,-932.509 541.185,-932.705 538.931,-932.852 536.673,-932.951 534.414,-933 532.153,-933 529.893,-932.951 527.636,-932.852 525.382,-932.705 523.133,-932.509 520.892,-932.265 518.661,-931.973 516.441,-931.636 514.235,-931.252 512.046,-930.824 509.877,-930.353 507.732,-929.839 505.615,-929.285 503.53,-928.692 501.482,-928.061 499.476,-927.395 497.518,-926.694 495.613,-925.961 493.767,-925.199 491.987,-924.408 490.281,-923.592 488.654,-922.752 487.114,-921.891 485.669,-921.011 484.326,-920.114 483.093,-919.203 481.976,-918.281 480.984,-917.35 480.124,-916.413 479.402,-915.471 478.826,-914.529 478.401,-913.587 478.134,-912.65 478.029,-911.719 478.093,-910.797 478.328,-909.886 478.738,-908.989 479.326,-908.109 480.094,-907.248 481.044,-906.408 482.174,-905.592 483.485,-904.801 484.974,-904.039 486.639,-903.306 488.477,-902.605 490.483,-901.939 492.652,-901.308 494.977,-900.715 497.45,-900.161 500.063,-899.647 502.809,-899.176 505.675,-898.748 508.652,-898.364 511.729,-898.027 514.894,-897.735 518.133,-897.491 521.435,-897.295 524.785,-897.148 528.17,-897.049 531.577,-897 534.99,-897 538.396,-897.049"/>
<text text-anchor="middle" x="533.283" y="-909.4" font-family="Times,serif" font-size="14.00">IndexFiles</text>
</g>
<!-- txtFiles&#45;&gt;IndexFiles -->
<g id="edge1" class="edge"><title>txtFiles&#45;&gt;IndexFiles</title>
<path fill="none" stroke="black" d="M571.434,-970.937C565.18,-961.931 557.391,-950.715 550.485,-940.77"/>
<polygon fill="black" stroke="black" points="553.282,-938.662 544.703,-932.445 547.533,-942.655 553.282,-938.662"/>
</g>
<!-- txtFiles&#45;&gt;Ingest -->
<g id="edge14" class="edge"><title>txtFiles&#45;&gt;Ingest</title>
<path fill="none" stroke="black" d="M604.616,-970.823C618.592,-957.526 634.283,-937.752 634.283,-916 634.283,-916 634.283,-916 634.283,-251 634.283,-207.928 586.97,-188.04 544.126,-178.86"/>
<polygon fill="black" stroke="black" points="544.708,-175.407 534.219,-176.904 543.352,-182.275 544.708,-175.407"/>
</g>
<!-- MetaData -->
<g id="MetaData" class="node"><title>MetaData</title>
<polygon fill="#ffeeee" stroke="black" points="707.678,-1007 704.678,-1011 683.678,-1011 680.678,-1007 636.889,-1007 636.889,-971 707.678,-971 707.678,-1007"/>
<text text-anchor="middle" x="672.283" y="-983.4" font-family="Times,serif" font-size="14.00">MetaData</text>
</g>
<!-- MetaData&#45;&gt;Ingest -->
<g id="edge15" class="edge"><title>MetaData&#45;&gt;Ingest</title>
<path fill="none" stroke="black" d="M672.283,-970.834C672.283,-956.247 672.283,-934.75 672.283,-916 672.283,-916 672.283,-916 672.283,-251 672.283,-195.727 604.642,-177.787 548.832,-172.391"/>
<polygon fill="black" stroke="black" points="548.827,-168.878 538.568,-171.524 548.238,-175.854 548.827,-168.878"/>
</g>
<!-- Labels -->
<g id="Labels" class="node"><title>Labels</title>
<polygon fill="#ffeeee" stroke="black" points="244.283,-270 202.283,-270 202.283,-274 190.283,-274 190.283,-234 244.283,-234 244.283,-270"/>
<polyline fill="none" stroke="black" points="190.283,-270 202.283,-270 "/>
<text text-anchor="middle" x="217.283" y="-246.4" font-family="Times,serif" font-size="14.00">Labels</text>
</g>
<!-- LCE_Ingest -->
<g id="LCE_Ingest" class="node"><title>LCE_Ingest</title>
<polygon fill="#eeffee" stroke="black" points="273.647,-152.049 277.198,-152.148 280.713,-152.295 284.176,-152.491 287.574,-152.735 290.894,-153.027 294.121,-153.364 297.245,-153.748 300.252,-154.176 303.131,-154.647 305.873,-155.161 308.468,-155.715 310.906,-156.308 313.181,-156.939 315.285,-157.605 317.214,-158.306 318.961,-159.039 320.523,-159.801 321.898,-160.592 323.084,-161.408 324.079,-162.248 324.885,-163.109 325.502,-163.989 325.933,-164.886 326.179,-165.797 326.246,-166.719 326.136,-167.65 325.856,-168.587 325.41,-169.529 324.805,-170.471 324.048,-171.413 323.146,-172.35 322.105,-173.281 320.934,-174.203 319.64,-175.114 318.231,-176.011 316.715,-176.891 315.1,-177.752 313.394,-178.592 311.603,-179.408 309.737,-180.199 307.801,-180.961 305.802,-181.694 303.747,-182.395 301.643,-183.061 299.495,-183.692 297.308,-184.285 295.087,-184.839 292.837,-185.353 290.562,-185.824 288.266,-186.252 285.952,-186.636 283.623,-186.973 281.282,-187.265 278.931,-187.509 276.572,-187.705 274.208,-187.852 271.839,-187.951 269.469,-188 267.098,-188 264.727,-187.951 262.359,-187.852 259.995,-187.705 257.636,-187.509 255.285,-187.265 252.944,-186.973 250.615,-186.636 248.301,-186.252 246.005,-185.824 243.73,-185.353 241.48,-184.839 239.259,-184.285 237.072,-183.692 234.923,-183.061 232.819,-182.395 230.765,-181.694 228.766,-180.961 226.83,-180.199 224.963,-179.408 223.173,-178.592 221.466,-177.752 219.851,-176.891 218.335,-176.011 216.926,-175.114 215.633,-174.203 214.461,-173.281 213.421,-172.35 212.518,-171.413 211.761,-170.471 211.156,-169.529 210.711,-168.587 210.43,-167.65 210.321,-166.719 210.387,-165.797 210.634,-164.886 211.064,-163.989 211.681,-163.109 212.487,-162.248 213.483,-161.408 214.668,-160.592 216.043,-159.801 217.606,-159.039 219.353,-158.306 221.281,-157.605 223.385,-156.939 225.66,-156.308 228.099,-155.715 230.693,-155.161 233.435,-154.647 236.315,-154.176 239.322,-153.748 242.445,-153.364 245.673,-153.027 248.992,-152.735 252.391,-152.491 255.854,-152.295 259.368,-152.148 262.92,-152.049 266.493,-152 270.074,-152 273.647,-152.049"/>
<text text-anchor="middle" x="268.283" y="-164.4" font-family="Times,serif" font-size="14.00">Update DB</text>
</g>
<!-- Labels&#45;&gt;LCE_Ingest -->
<g id="edge22" class="edge"><title>Labels&#45;&gt;LCE_Ingest</title>
<path fill="none" stroke="black" d="M228.35,-233.641C235.26,-222.802 244.278,-208.655 251.996,-196.548"/>
<polygon fill="black" stroke="black" points="255.164,-198.09 257.588,-187.777 249.261,-194.328 255.164,-198.09"/>
</g>
<!-- GridPointMemberships -->
<g id="GridPointMemberships" class="node"><title>GridPointMemberships</title>
<polygon fill="#ffeeee" stroke="black" points="274.864,-426 139.703,-426 139.703,-430 127.703,-430 127.703,-390 274.864,-390 274.864,-426"/>
<polyline fill="none" stroke="black" points="127.703,-426 139.703,-426 "/>
<text text-anchor="middle" x="201.283" y="-402.4" font-family="Times,serif" font-size="14.00">GridPointMemberships</text>
</g>
<!-- Labeling -->
<g id="Labeling" class="node"><title>Labeling</title>
<polygon fill="#eeffee" stroke="black" points="205.721,-308.049 208.659,-308.148 211.567,-308.295 214.433,-308.491 217.245,-308.735 219.991,-309.027 222.662,-309.364 225.246,-309.748 227.734,-310.176 230.117,-310.647 232.385,-311.161 234.532,-311.715 236.55,-312.308 238.432,-312.939 240.173,-313.605 241.769,-314.306 243.214,-315.039 244.507,-315.801 245.644,-316.592 246.625,-317.408 247.449,-318.248 248.116,-319.109 248.627,-319.989 248.983,-320.886 249.187,-321.797 249.242,-322.719 249.151,-323.65 248.919,-324.587 248.55,-325.529 248.05,-326.471 247.424,-327.413 246.677,-328.35 245.816,-329.281 244.847,-330.203 243.776,-331.114 242.611,-332.011 241.356,-332.891 240.02,-333.752 238.608,-334.592 237.127,-335.408 235.582,-336.199 233.98,-336.961 232.326,-337.694 230.627,-338.395 228.885,-339.061 227.108,-339.692 225.298,-340.285 223.461,-340.839 221.599,-341.353 219.717,-341.824 217.817,-342.252 215.902,-342.636 213.975,-342.973 212.038,-343.265 210.093,-343.509 208.141,-343.705 206.185,-343.852 204.226,-343.951 202.264,-344 200.302,-344 198.341,-343.951 196.381,-343.852 194.425,-343.705 192.474,-343.509 190.528,-343.265 188.591,-342.973 186.664,-342.636 184.75,-342.252 182.85,-341.824 180.967,-341.353 179.106,-340.839 177.268,-340.285 175.459,-339.692 173.681,-339.061 171.94,-338.395 170.24,-337.694 168.586,-336.961 166.984,-336.199 165.44,-335.408 163.959,-334.592 162.547,-333.752 161.21,-332.891 159.956,-332.011 158.79,-331.114 157.72,-330.203 156.751,-329.281 155.89,-328.35 155.143,-327.413 154.516,-326.471 154.016,-325.529 153.647,-324.587 153.415,-323.65 153.325,-322.719 153.38,-321.797 153.584,-320.886 153.94,-319.989 154.451,-319.109 155.117,-318.248 155.941,-317.408 156.922,-316.592 158.06,-315.801 159.352,-315.039 160.798,-314.306 162.393,-313.605 164.135,-312.939 166.017,-312.308 168.034,-311.715 170.181,-311.161 172.45,-310.647 174.832,-310.176 177.32,-309.748 179.905,-309.364 182.575,-309.027 185.322,-308.735 188.134,-308.491 190.999,-308.295 193.907,-308.148 196.845,-308.049 199.802,-308 202.765,-308 205.721,-308.049"/>
<text text-anchor="middle" x="201.283" y="-320.4" font-family="Times,serif" font-size="14.00">Labeling</text>
</g>
<!-- GridPointMemberships&#45;&gt;Labeling -->
<g id="edge21" class="edge"><title>GridPointMemberships&#45;&gt;Labeling</title>
<path fill="none" stroke="black" d="M201.283,-389.641C201.283,-379.297 201.283,-365.941 201.283,-354.221"/>
<polygon fill="black" stroke="black" points="204.783,-354.05 201.283,-344.05 197.783,-354.05 204.783,-354.05"/>
</g>
<!-- GridPointMemberships&#45;&gt;LCE_Ingest -->
<g id="edge23" class="edge"><title>GridPointMemberships&#45;&gt;LCE_Ingest</title>
<path fill="none" stroke="black" d="M222.866,-389.876C235.617,-378.392 250.706,-362.095 258.283,-344 278.504,-295.715 275.857,-233.146 272.086,-198.016"/>
<polygon fill="black" stroke="black" points="275.557,-197.56 270.904,-188.041 268.606,-198.384 275.557,-197.56"/>
</g>
<!-- IndexFiles&#45;&gt;LuceneIdx -->
<g id="edge2" class="edge"><title>IndexFiles&#45;&gt;LuceneIdx</title>
<path fill="none" stroke="black" d="M530.439,-896.937C529.07,-888.719 527.393,-878.66 525.851,-869.406"/>
<polygon fill="black" stroke="black" points="529.286,-868.729 524.19,-859.441 522.382,-869.88 529.286,-868.729"/>
</g>
<!-- Stemming&#45;&gt;StemWordFiles -->
<g id="edge4" class="edge"><title>Stemming&#45;&gt;StemWordFiles</title>
<path fill="none" stroke="black" d="M494.386,-749.633C484.328,-741.228 472.012,-730.732 461.283,-721 450.588,-711.298 439.183,-700.428 429.009,-690.532"/>
<polygon fill="black" stroke="black" points="431.442,-688.017 421.845,-683.529 426.549,-693.022 431.442,-688.017"/>
</g>
<!-- Stemming&#45;&gt;TDM -->
<g id="edge5" class="edge"><title>Stemming&#45;&gt;TDM</title>
<path fill="none" stroke="black" d="M514.283,-748.809C514.283,-732.061 514.283,-706.325 514.283,-686.689"/>
<polygon fill="black" stroke="black" points="517.783,-686.504 514.283,-676.504 510.783,-686.504 517.783,-686.504"/>
</g>
<!-- MongoDB -->
<g id="MongoDB" class="node"><title>MongoDB</title>
<ellipse fill="#eeeeff" stroke="black" cx="268.283" cy="-53" rx="52.0289" ry="52.2044"/>
<polyline fill="none" stroke="black" points="302.676,-92.264 233.89,-92.264 "/>
<polyline fill="none" stroke="black" points="302.676,-13.736 233.89,-13.736 "/>
<text text-anchor="middle" x="268.283" y="-47.4" font-family="Times,serif" font-size="14.00">MongoDB</text>
</g>
<!-- Ingest&#45;&gt;MongoDB -->
<g id="edge16" class="edge"><title>Ingest&#45;&gt;MongoDB</title>
<path fill="none" stroke="black" d="M437.16,-147.369C404.831,-129.495 358.576,-103.921 322.646,-84.0565"/>
<polygon fill="black" stroke="black" points="324.194,-80.9129 313.749,-79.1373 320.807,-87.0389 324.194,-80.9129"/>
</g>
<!-- Clusterings&#45;&gt;ClusterMemberships_files -->
<g id="edge7" class="edge"><title>Clusterings&#45;&gt;ClusterMemberships_files</title>
<path fill="none" stroke="black" d="M514.283,-471.547C514.283,-462.99 514.283,-453.289 514.283,-444.123"/>
<polygon fill="black" stroke="black" points="517.783,-444.092 514.283,-434.092 510.783,-444.092 517.783,-444.092"/>
</g>
<!-- Projection&#45;&gt;MethodPoints -->
<g id="edge9" class="edge"><title>Projection&#45;&gt;MethodPoints</title>
<path fill="none" stroke="black" d="M476.283,-307.937C476.283,-299.807 476.283,-289.876 476.283,-280.705"/>
<polygon fill="black" stroke="black" points="479.783,-280.441 476.283,-270.441 472.783,-280.441 479.783,-280.441"/>
</g>
<!-- CalcSymMatrix -->
<g id="CalcSymMatrix" class="node"><title>CalcSymMatrix</title>
<polygon fill="#eeffee" stroke="black" points="128.425,-640.049 133.153,-640.148 137.832,-640.295 142.444,-640.491 146.968,-640.735 151.388,-641.027 155.686,-641.364 159.844,-641.748 163.848,-642.176 167.682,-642.647 171.333,-643.161 174.787,-643.715 178.034,-644.308 181.063,-644.939 183.865,-645.605 186.432,-646.306 188.758,-647.039 190.838,-647.801 192.669,-648.592 194.248,-649.408 195.573,-650.248 196.646,-651.109 197.468,-651.989 198.041,-652.886 198.369,-653.797 198.458,-654.719 198.312,-655.65 197.939,-656.587 197.345,-657.529 196.54,-658.471 195.532,-659.413 194.33,-660.35 192.945,-661.281 191.385,-662.203 189.663,-663.114 187.787,-664.011 185.769,-664.891 183.618,-665.752 181.346,-666.592 178.962,-667.408 176.477,-668.199 173.899,-668.961 171.238,-669.694 168.502,-670.395 165.7,-671.061 162.84,-671.692 159.928,-672.285 156.971,-672.839 153.975,-673.353 150.946,-673.824 147.889,-674.252 144.808,-674.636 141.707,-674.973 138.59,-675.265 135.46,-675.509 132.319,-675.705 129.171,-675.852 126.018,-675.951 122.862,-676 119.705,-676 116.548,-675.951 113.395,-675.852 110.247,-675.705 107.107,-675.509 103.977,-675.265 100.86,-674.973 97.7586,-674.636 94.6775,-674.252 91.6202,-673.824 88.5912,-673.353 85.5955,-672.839 82.6386,-672.285 79.7266,-671.692 76.8661,-671.061 74.0643,-670.395 71.3287,-669.694 68.6677,-668.961 66.0899,-668.199 63.6043,-667.408 61.2205,-666.592 58.9484,-665.752 56.798,-664.891 54.7797,-664.011 52.9039,-663.114 51.1811,-662.203 49.6218,-661.281 48.2362,-660.35 47.0345,-659.413 46.0264,-658.471 45.2213,-657.529 44.628,-656.587 44.2547,-655.65 44.1088,-654.719 44.1972,-653.797 44.5255,-652.886 45.0986,-651.989 45.9203,-651.109 46.9932,-650.248 48.3189,-649.408 49.8976,-648.592 51.7282,-647.801 53.8084,-647.039 56.1347,-646.306 58.7019,-645.605 61.5038,-644.939 64.5326,-644.308 67.7793,-643.715 71.2338,-643.161 74.8844,-642.647 78.7185,-642.176 82.7223,-641.748 86.8809,-641.364 91.1784,-641.027 95.5983,-640.735 100.123,-640.491 104.734,-640.295 109.414,-640.148 114.142,-640.049 118.9,-640 123.667,-640 128.425,-640.049"/>
<text text-anchor="middle" x="121.283" y="-652.4" font-family="Times,serif" font-size="14.00">CalcSymMatrix</text>
</g>
<!-- RunKMeans -->
<g id="RunKMeans" class="node"><title>RunKMeans</title>
<polygon fill="#eeffee" stroke="black" points="175.17,-480.049 179.067,-480.148 182.924,-480.295 186.725,-480.491 190.454,-480.735 194.097,-481.027 197.639,-481.364 201.067,-481.748 204.367,-482.176 207.527,-482.647 210.536,-483.161 213.384,-483.715 216.06,-484.308 218.556,-484.939 220.866,-485.605 222.982,-486.306 224.899,-487.039 226.614,-487.801 228.123,-488.592 229.424,-489.408 230.517,-490.248 231.401,-491.109 232.078,-491.989 232.551,-492.886 232.821,-493.797 232.894,-494.719 232.774,-495.65 232.466,-496.587 231.977,-497.529 231.313,-498.471 230.482,-499.413 229.492,-500.35 228.35,-501.281 227.065,-502.203 225.645,-503.114 224.099,-504.011 222.435,-504.891 220.663,-505.752 218.79,-506.592 216.825,-507.408 214.776,-508.199 212.651,-508.961 210.458,-509.694 208.203,-510.395 205.894,-511.061 203.536,-511.692 201.136,-512.285 198.699,-512.839 196.23,-513.353 193.733,-513.824 191.213,-514.252 188.673,-514.636 186.117,-514.973 183.548,-515.265 180.968,-515.509 178.38,-515.705 175.785,-515.852 173.186,-515.951 170.584,-516 167.982,-516 165.381,-515.951 162.781,-515.852 160.187,-515.705 157.598,-515.509 155.018,-515.265 152.449,-514.973 149.893,-514.636 147.354,-514.252 144.834,-513.824 142.337,-513.353 139.868,-512.839 137.431,-512.285 135.03,-511.692 132.673,-511.061 130.363,-510.395 128.108,-509.694 125.915,-508.961 123.79,-508.199 121.742,-507.408 119.777,-506.592 117.904,-505.752 116.132,-504.891 114.468,-504.011 112.922,-503.114 111.502,-502.203 110.217,-501.281 109.075,-500.35 108.084,-499.413 107.253,-498.471 106.59,-497.529 106.1,-496.587 105.793,-495.65 105.673,-494.719 105.745,-493.797 106.016,-492.886 106.488,-491.989 107.166,-491.109 108.05,-490.248 109.143,-489.408 110.444,-488.592 111.953,-487.801 113.667,-487.039 115.585,-486.306 117.701,-485.605 120.01,-484.939 122.507,-484.308 125.183,-483.715 128.03,-483.161 131.039,-482.647 134.199,-482.176 137.5,-481.748 140.927,-481.364 144.469,-481.027 148.113,-480.735 151.842,-480.491 155.643,-480.295 159.5,-480.148 163.397,-480.049 167.318,-480 171.248,-480 175.17,-480.049"/>
<text text-anchor="middle" x="169.283" y="-492.4" font-family="Times,serif" font-size="14.00">RunKMeans</text>
</g>
<!-- CalcSymMatrix&#45;&gt;RunKMeans -->
<g id="edge18" class="edge"><title>CalcSymMatrix&#45;&gt;RunKMeans</title>
<path fill="none" stroke="black" d="M126.511,-639.79C134.843,-612.366 151.199,-558.528 161.094,-525.956"/>
<polygon fill="black" stroke="black" points="164.504,-526.774 164.061,-516.188 157.806,-524.739 164.504,-526.774"/>
<text text-anchor="middle" x="171.387" y="-599.4" font-family="Times,serif" font-size="14.00">in&#45;memory</text>
</g>
<!-- RunKMeans&#45;&gt;GridPointMemberships -->
<g id="edge20" class="edge"><title>RunKMeans&#45;&gt;GridPointMemberships</title>
<path fill="none" stroke="black" d="M175.453,-480.033C180.028,-467.453 186.352,-450.06 191.598,-435.633"/>
<polygon fill="black" stroke="black" points="194.895,-436.81 195.023,-426.215 188.316,-434.417 194.895,-436.81"/>
</g>
<!-- LCE_Ingest&#45;&gt;MongoDB -->
<g id="edge24" class="edge"><title>LCE_Ingest&#45;&gt;MongoDB</title>
<path fill="none" stroke="black" d="M268.283,-151.534C268.283,-141.72 268.283,-128.817 268.283,-115.624"/>
<polygon fill="black" stroke="black" points="271.783,-115.524 268.283,-105.524 264.783,-115.524 271.783,-115.524"/>
</g>
<!-- Labeling&#45;&gt;Labels -->
<g id="edge19" class="edge"><title>Labeling&#45;&gt;Labels</title>
<path fill="none" stroke="black" d="M205.075,-307.937C206.901,-299.719 209.137,-289.66 211.193,-280.406"/>
<polygon fill="black" stroke="black" points="214.655,-280.962 213.408,-270.441 207.822,-279.443 214.655,-280.962"/>
</g>
<!-- MongoDB&#45;&gt;CalcSymMatrix -->
<g id="edge17" class="edge"><title>MongoDB&#45;&gt;CalcSymMatrix:w</title>
<path fill="none" stroke="black" d="M216.073,-54.8989C140.685,-59.2762 10.2833,-79.7475 10.2833,-169 10.2833,-499 10.2833,-499 10.2833,-499 10.2833,-567.595 -24.1935,-649.228 34.1098,-657.342"/>
<polygon fill="black" stroke="black" points="34.0783,-660.847 44.2833,-658 34.5299,-653.862 34.0783,-660.847"/>
</g>
<!-- legend -->
<g id="node20" class="node"><title>legend</title>
<polygon fill="#eeffee" stroke="black" points="185.533,-195.5 39.0333,-195.5 39.0333,-144.5 191.533,-144.5 191.533,-189.5 185.533,-195.5"/>
<polyline fill="none" stroke="black" points="185.533,-195.5 185.533,-189.5 "/>
<polyline fill="none" stroke="black" points="191.533,-189.5 185.533,-189.5 "/>
<text text-anchor="start" x="84.7833" y="-178.5" font-family="Times,serif" font-size="14.00">Labels and</text>
<text text-anchor="start" x="47.2833" y="-164.5" font-family="Times,serif" font-size="14.00">Grid point memberships</text>
<text text-anchor="start" x="49.2833" y="-150.5" font-family="Times,serif" font-size="14.00">are stored in MongoDB</text>
</g>
</g>
</svg>
